<?xml version="1.0" encoding="utf-8"?>
<!-- Generator: Adobe Illustrator 26.2.1, SVG Export Plug-In . SVG Version: 6.00 Build 0)  -->
<svg version="1.1" id="Capa_1" xmlns="http://www.w3.org/2000/svg" xmlns:xlink="http://www.w3.org/1999/xlink" x="0px" y="0px"
	 viewBox="0 0 852 160" style="enable-background:new 0 0 852 160;" xml:space="preserve">
<style type="text/css">
	.st0{display:none;}
	.st1{clip-path:url(#SVGID_00000164504453334981184200000007770105265946133161_);}
	.st2{fill:#131111;stroke:#000000;stroke-width:2;stroke-miterlimit:10;}
	.st3{fill:none;stroke:#000000;stroke-miterlimit:10;}
	.st4{fill:#131311;stroke:#000000;stroke-width:2;stroke-miterlimit:10;}
	.st5{fill:none;stroke:#000000;stroke-width:2;stroke-miterlimit:10;}
	.st6{fill:#666666;stroke:#000000;stroke-width:2;stroke-miterlimit:10;}
	.st7{fill:#333333;stroke:#000000;stroke-width:2;stroke-miterlimit:10;}
	.st8{fill:#333333;stroke:#000000;stroke-miterlimit:10;}
	.st9{fill:#FFFFFF;}
</style>
<g class="st0">
</g>
<g>
	<g>
		<defs>
			<rect id="SVGID_1_" width="852" height="160"/>
		</defs>
		<clipPath id="SVGID_00000147202155060254112910000007859690717005276295_">
			<use xlink:href="#SVGID_1_"  style="overflow:visible;"/>
		</clipPath>
		<g style="clip-path:url(#SVGID_00000147202155060254112910000007859690717005276295_);">
			<path class="st2" d="M17.1,88.9c0,0-1.8-1.8-1.8-9.1L12.9,78c0,0,6.6-5.5,32.3-9.1l29.9-2.4h10.2l3,1.8c0,0,26.9-15.8,32.3-18.3
				c0,0,10.8-3,17.4-3.7l31.1-0.6l18.5,3.7c0,0,26.3,8.2,35.3,13.6c0.2,0.1,0.4,0.2,0.6,0.4l17.4,0.6l8.4-3.7c0,0,3-0.6,2.4,1.2
				s-2.4,3-2.4,3s2.4,12.8,2.4,18.9h2.4l3.6,3l-1.8,14l-6,6.1l-28.1,3.7c0,0,4.8-28.6-22.7-29.2c0,0-25.7,0-20.9,31.1l0.6,1.2
				l-99.9-0.6c0,0,6.6-29.8-20.3-31.7c0,0-25.1-3-22.7,29.8v0.6H11.7v-1.2h2.4l-1.2-3h3l-1.2-7.9c0,0-5.4,0-5.4-2.4s0-4.9,0-4.9
				l1.2-1.8h7.2L17.1,88.9"/>
			<path class="st3" d="M79.3,108.4h-3.6C70.3,118.8,65.5,120,65.5,120s-3,2.4-12,1.8s-15-12.8-15-12.8l-3-0.2"/>
			<ellipse class="st4" cx="57.2" cy="102" rx="19.1" ry="19.8"/>
			<ellipse class="st4" cx="199.3" cy="102.3" rx="19.1" ry="19.8"/>
			<line class="st5" x1="177.7" y1="111.2" x2="181.9" y2="111.2"/>
			<line class="st5" x1="217.8" y1="107.5" x2="222" y2="107.5"/>
			<path class="st6" d="M18.6,100.8c0,0,2.7,0.3,3.9,1.5c1.2,1.2,1.2,4.9,1.2,4.9s0,1.8-2.4,1.2s-3-3-3-3s0-1.8,0-2.4s0-2.4,0-2.4
				L18.6,100.8z"/>
			<polygon class="st6" points="17.7,97.5 32,97.5 32,96.9 33.2,96.2 33.2,95.6 32,95 32,94.4 17.7,94.4 			"/>
			<path class="st6" d="M15.3,80.3l2.9,0.1c0,0,0.6,8.5,2.4,9.7h-3"/>
			<path class="st6" d="M20.1,81c0,0,0.6,7.9,3,9.1h5.4c0,0,1.8-2.4,0.6-4.3c-1.2-1.8-2.4-4.3-2.4-4.3V81H20.1z"/>
			<path class="st7" d="M88.3,68.2l5.4,3c0,0,21.5-17.7,31.1-18.9l-5.4-1.8"/>
			<path class="st7" d="M114,64l-1.2,1.2l-4.8,1.2v1.8l4.8,1.2l4.8,0.6c0,0,2.4,0,3.6-1.8s0-3.7,0-3.7l-1.8-1.2h-4.2l-1.8,0.6v-1.2
				l10.2-6.1l11.4-4.3c0,0,20.9,0,26.3,0c5.4,0,6.6,2.4,6.6,2.4l-3.6,14l-63.4,1.8c1.2-0.6,6.6-4.9,6.6-4.9l5.4-3l1.2-0.6"/>
			<polygon class="st7" points="178.6,53.6 176.2,65.2 201.4,65.2 201.4,60.9 			"/>
			<path class="st6" d="M249.8,70.7c0,0-1.8-0.6-3,3c-1.2,3.7,1.8,6.1,1.8,6.1l2.4,0.6"/>
			<path class="st8" d="M39.2,108.8l-3.8-0.2l0.7-9.9c0,0,0.8-6.3,4.3-10.1c3.5-3.9,6.7-5.5,6.7-5.5s5-2.7,9.6-2l3.4,0.2
				c0,0,6.5,1.5,7.4,1.9c1,0.4,4.3,2.3,5.3,3.5s2.9,3.7,3.4,4.9c0.6,1.2,2.4,4.9,2.4,6.1s0.7,8.5,0.7,8.5l-0.1,1.8l-3.6,0.1l0.5-4.6
				l-0.4-5.6l-1.6-4.6L72,89.6L68.4,86l-5.2-2.4l-4.3-1.2l-4.8-0.1l-4,1.3l-3.9,2.5l-2.5,2.2L41,91.4l-1.8,3l-1.1,5.2l0.7,7.4
				l-0.1,0.7L39.2,108.8z"/>
			<path class="st8" d="M178,110.3h3l-0.7-6.2l0.2-5.7l2.3-5.9l4.2-5.4l4.3-2.6l5.1-1.8l4-0.1l4.1,0.7l3.1,1.2c0,0,1.6,0.1,4,2.5
				s3.1,3.8,3.1,3.8l1.4,2.1l1.5,3.8l0.6,3.7v4.9l-0.4,1.5l3.9,0.3l0.2-4l-0.7-5.2l-1.7-5.1l-2-4.7l-3.1-2.4l-3.5-2.4l-2.7-1
				l-5.1-1.2l-6.5-0.4l-4.5,1.2c0,0-0.3,0-3.9,1.8c-3.6,1.8-4.8,3.7-4.8,3.7l-3,3.7l-1.2,3l-1.2,3.7l-0.6,4.9L178,110.3z"/>
		</g>
	</g>
</g>
<g>
	<g>
		<path class="st9" d="M262,116.8c0-21.5,0-43,0-64.5c193.3,0,386.7,0,580,0c0,21.5,0,43,0,64.5C648.7,116.8,455.3,116.8,262,116.8z
			 M526.8,86.3c-0.1,0-0.1,0-0.2,0c-1.7-6-3.4-12.1-5-18.1c-3.2,0-6.3,0-9.5,0c3.1,9.2,6.1,18.3,9.2,27.5c3.3,0,6.6,0,9.9,0
			c0.7,0,0.9-0.2,1.1-0.8c2.9-8.7,5.8-17.3,8.7-25.9c0.1-0.2,0.2-0.5,0.2-0.8c-3.1,0-6,0-9,0c-0.2,0-0.5,0.3-0.6,0.5
			c-0.4,1.4-0.8,2.8-1.2,4.2C529.3,77.4,528,81.8,526.8,86.3z M682.2,73.6c-2.9-4.8-10.2-7.1-16.3-5.2c-6.4,1.9-10.3,7.7-10,14.4
			c0.3,6.6,4.9,11.9,11.4,13.2c6.8,1.3,12.7-2,14.9-5.6c-2.4-1.6-4.8-3.2-7.1-4.7c-2.9,2.6-6.4,2.8-8.7,0.5c-2.1-2-2.2-5.7-0.3-7.9
			c1-1.1,2.2-1.7,3.7-1.9c2.1-0.2,3.9,0.5,5.3,2.1C677.4,76.7,679.8,75.2,682.2,73.6z M294.7,85.6c-3.1,2.6-6.5,2.8-8.8,0.4
			c-2-2.1-2.1-5.7-0.2-7.9c2.2-2.5,5.5-2.5,9,0.2c2.4-1.6,4.8-3.2,7.1-4.7c-2.9-4.4-9.4-7.2-16.1-5.3c-6.3,1.8-10.4,7.5-10.2,14
			c0.2,6.8,4.6,12.1,11.2,13.5c6.7,1.4,12.7-1.7,15.1-5.6C299.5,88.7,297.1,87.2,294.7,85.6z M352.5,77.3c-3.7-3.2-11-2.5-13.5,3.7
			c-1.4,3.4-1.3,6.9,0.2,10.2c2.4,5.2,8.5,6.7,13,3.3c0,0,0.1,0,0.2,0c0,0.4,0,0.9,0.1,1.3c2.6,0,5.1,0,7.7,0c0-9.2,0-18.3,0-27.5
			c-2.6,0-5.1,0-7.7,0C352.5,71.2,352.5,74.2,352.5,77.3z M423.9,77.2c-0.2-0.1-0.3-0.2-0.4-0.2c-3-2.6-9.2-2.2-12,2
			c-2.6,4-2.8,8.3-0.7,12.5c2.5,4.9,8.3,6.2,12.8,2.9c0.1,0,0.1,0,0.3,0c0,0.4,0,0.8,0,1.3c2.6,0,5.1,0,7.7,0c0-9.2,0-18.3,0-27.4
			c-2.6,0-5.1,0-7.7,0C423.9,71.2,423.9,74.2,423.9,77.2z M567.8,95.7c2.6,0,5.2,0,7.7,0c0-9.2,0-18.3,0-27.4c-2.6,0-5.1,0-7.7,0
			c0,3,0,5.9,0,9c-3.6-3.1-10.6-2.4-13.1,3.1c-1.6,3.5-1.7,7-0.2,10.5c2.3,5.4,8.4,7,13.2,3.6c0,0,0.1,0,0.2,0
			C567.8,94.8,567.8,95.2,567.8,95.7z M745.1,95.7c2.6,0,5.2,0,7.7,0c0-9.2,0-18.3,0-27.5c-2.6,0-5.1,0-7.7,0c0,3,0,6,0,9
			c-3.6-3.2-11-2.4-13.4,3.7c-1.3,3.4-1.3,6.8,0.1,10.1c2.3,5.3,8.5,6.9,13.1,3.4c0,0,0.1,0,0.2,0C745.1,94.8,745.1,95.2,745.1,95.7
			z M394.1,95.7c0-3.3,0-6.4,0-9.6c0-0.5,0-1,0.2-1.5c0.3-1.1,1.1-1.6,2.3-1.6c1.2,0,2.1,0.5,2.4,1.5c0.1,0.5,0.2,1,0.2,1.6
			c0,2.9,0,5.8,0,8.7c0,0.3,0,0.6,0,0.9c2.7,0,5.2,0,7.7,0c0-0.2,0.1-0.3,0.1-0.4c0-4.3,0-8.6-0.1-12.9c0-1.5-0.5-3-1.4-4.2
			c-2.2-3.3-7.5-3.8-10.5-1.1c-0.2,0.2-0.4,0.4-0.8,0.7c0-0.8,0-1.3,0-1.9c-2.6,0-5.2,0-7.7,0c0,6.6,0,13.2,0,19.8
			C389,95.7,391.5,95.7,394.1,95.7z M720.3,95.7c2.6,0,5.1,0,7.7,0c0-0.1,0.1-0.3,0.1-0.4c0-4,0-8,0-12c0-1.1-0.2-2.2-0.6-3.3
			c-1.8-5.6-8.7-5.6-11.5-2.9c-0.2,0.2-0.4,0.4-0.8,0.7c0-0.7,0-1.3,0-1.9c-2.6,0-5.2,0-7.7,0c0,6.6,0,13.2,0,19.7
			c2.6,0,5.1,0,7.7,0c0-3.2,0-6.3,0-9.4c0-0.4,0-0.8,0.1-1.2c0.3-1.4,1.2-2.1,2.7-2c1.3,0.1,2.1,0.9,2.2,2.3c0,0.4,0,0.9,0,1.3
			C720.3,89.7,720.3,92.6,720.3,95.7z M769.2,75.9c0,0.4,0,0.7,0,1c0,3,0,6,0,9c0,1.6-0.8,2.5-2.2,2.7c-1.8,0.1-2.8-0.8-2.8-2.6
			c0-3.1,0-6.1,0-9.2c0-0.3,0-0.6,0-0.9c-2.6,0-5.2,0-7.7,0c0,4.6-0.1,9.1,0,13.6c0.1,3.4,2.3,5.8,5.2,6.4c2.7,0.6,5.2,0.1,7.1-2
			c0-0.1,0.1-0.1,0.3-0.1c0,0.7,0,1.3,0,1.8c2.6,0,5.2,0,7.7,0c0-6.6,0-13.2,0-19.8C774.3,75.9,771.8,75.9,769.2,75.9z M303.9,75.9
			c0,4.6-0.2,9.2,0.1,13.7c0.2,3.4,2.3,5.7,5.2,6.4c2.7,0.6,5.1,0.1,7.1-1.9c0.1-0.1,0.2-0.1,0.4-0.3c0,0.7,0,1.3,0,1.9
			c2.6,0,5.2,0,7.7,0c0-6.6,0-13.2,0-19.8c-2.6,0-5.1,0-7.7,0c0,0.4,0,0.8,0,1.2c0,2.9,0,5.8,0,8.8c0,1.7-0.8,2.6-2.3,2.7
			c-1.7,0.1-2.7-0.8-2.7-2.6c0-3.1,0-6.1,0-9.2c0-0.3,0-0.6,0-0.9C308.9,75.9,306.4,75.9,303.9,75.9z M456,85.2
			c-0.1-3.5-1.8-6.6-5.6-8.6c-2.2-1.1-4.6-1.4-7.1-1.1c-6.9,0.8-11.1,7.4-8.7,13.9c1.5,4.2,4.8,6.3,9.1,6.7
			C450.3,96.8,456,92.6,456,85.2z M683,86.9c0,1.7,0.9,4.2,2.9,6.1c2.7,2.7,6.1,3.5,9.8,3c7.3-0.8,11.5-8.4,8.3-14.9
			c-1.8-3.6-4.9-5.4-8.8-5.7C688.5,74.8,682.9,79.2,683,86.9z M382.7,95.7c0-4.5,0.1-8.9,0-13.2c-0.1-3.2-1.9-5.4-5-6.4
			c-2.2-0.7-4.5-0.8-6.8-0.4c-2.6,0.4-4.9,1.5-6.7,3.5c1.5,1,2.9,2,4.3,2.9c0.2,0.1,0.5,0,0.7-0.1c1.1-0.3,2.2-0.7,3.3-0.8
			c1.5-0.1,2.3,0.8,2.4,2.5c-0.8,0-1.5,0-2.3,0c-2.3,0.1-4.6,0.4-6.6,1.5c-3.8,2.2-4.1,7.8-0.5,9.9c1.6,0.9,3.3,1.2,5.2,1
			c1.6-0.2,3.1-0.9,4.4-2.3c0,0.8,0,1.3,0,1.9C377.6,95.7,380.1,95.7,382.7,95.7z M491.7,83.7c-0.8,0-1.6,0-2.4,0
			c-2.3,0.1-4.5,0.4-6.5,1.5c-3.9,2.2-4.1,7.7-0.5,9.9c1.6,0.9,3.3,1.2,5.2,1c1.6-0.2,3.1-0.9,4.3-2.2c0,0.7,0.1,1.2,0.1,1.8
			c2.6,0,5.1,0,7.7,0c0-4.5,0.2-8.9-0.1-13.4c-0.2-3.7-2.5-5.9-6.3-6.7c-2.2-0.4-4.4-0.4-6.6,0.2c-2.1,0.6-4,1.6-5.5,3.3
			c1.5,1,2.9,2,4.4,3c0.2,0.1,0.5-0.1,0.7-0.1c1.1-0.3,2.1-0.7,3.2-0.7C490.8,81.2,491.6,82.1,491.7,83.7z M597.9,95.7
			c0-0.1,0.1-0.1,0.1-0.2c0-4.3,0.1-8.6,0-12.8c-0.1-3.6-2.2-5.9-5.7-6.8c-3-0.8-6-0.6-8.9,0.6c-1.5,0.6-2.8,1.5-3.9,2.7
			c1.4,0.9,2.7,1.8,4,2.7c0.4,0.3,0.7,0.3,1.2,0.1c1.1-0.4,2.2-0.7,3.4-0.7c1.4,0,2.2,1,2.1,2.5c-0.8,0-1.5,0-2.3,0
			c-2.3,0.1-4.5,0.4-6.5,1.5c-2.3,1.3-3.3,3.4-3,6c0.3,2.4,1.8,3.9,4.3,4.6c2.8,0.7,5.4,0.3,7.6-1.9c0,0.6,0.1,1.2,0.1,1.7
			C592.8,95.7,595.3,95.7,597.9,95.7z M623.2,95.7c2.6,0,5.2,0,7.7,0c0-4.4,0.1-8.7,0-13.1c-0.1-3.4-2.1-5.8-5.3-6.7
			c-2.8-0.8-5.6-0.7-8.3,0.2c-1.9,0.6-3.5,1.6-4.8,3.1c1.5,1,2.8,2,4.3,2.9c0.2,0.1,0.5,0,0.8,0c1.2-0.2,2.3-0.7,3.5-0.7
			c1.4-0.1,2.2,0.9,2.1,2.4c-1.4,0.1-2.8,0.1-4.2,0.2c-2,0.2-3.8,0.7-5.5,1.9c-2.9,2.2-3.1,6.8-0.4,9c2.4,1.9,6.6,2,9.1,0.1
			c0.3-0.2,0.6-0.5,1-0.9C623.2,94.6,623.2,95.2,623.2,95.7z M799.9,80.2c-0.3-0.4-0.4-0.6-0.6-0.8c-0.2-0.3-0.5-0.6-0.7-0.8
			c-3.2-2.9-6.9-3.7-11-2.8c-3.8,0.9-6.5,3.2-7.6,7c-1.1,3.9-0.4,7.5,2.6,10.5c3,3,8.4,3.9,12.6,2.1c2-0.8,3.6-2.1,4.8-4
			c-2.2-1.3-4.3-2.6-6.5-3.9c-1.6,1.8-3.8,2.1-5.2,0.8c-1.3-1.2-1.3-3.5-0.1-4.7c0.7-0.7,1.5-0.9,2.4-0.9c1.2,0,2.2,0.6,2.9,1.6
			C795.6,82.9,797.7,81.6,799.9,80.2z M634.6,68.2c0,9.2,0,18.3,0,27.5c2.6,0,5.1,0,7.6,0c0-9.2,0-18.3,0-27.5
			C639.7,68.2,637.2,68.2,634.6,68.2z M477.2,68.2c-2.6,0-5.1,0-7.7,0c0,9.2,0,18.3,0,27.5c2.6,0,5.1,0,7.7,0
			C477.2,86.5,477.2,77.4,477.2,68.2z M813.2,75.9c0,6.6,0,13.2,0,19.8c2.6,0,5.1,0,7.7,0c0-1.1,0-2.1,0-3.1c0-2,0-4,0.1-6
			c0.2-1.9,1.3-2.9,3.2-3.1c0.8-0.1,1.7,0,2.6,0c0-2.7,0-5.4,0-8.1c-2.6,0.1-4.4,1.4-6,3.3c0-0.9,0-1.9,0-2.8
			C818.3,75.9,815.8,75.9,813.2,75.9z M335.6,95.7c0-6.7,0-13.2,0-19.8c-2.6,0-5.1,0-7.6,0c0,6.6,0,13.2,0,19.8
			C330.5,95.7,333,95.7,335.6,95.7z M550.7,95.7c0-6.6,0-13.2,0-19.8c-2.6,0-5.1,0-7.7,0c0,6.6,0,13.2,0,19.8
			C545.6,95.7,548.1,95.7,550.7,95.7z M801.8,75.9c0,6.7,0,13.2,0,19.8c2.6,0,5.1,0,7.6,0c0-6.6,0-13.2,0-19.8
			C806.9,75.9,804.4,75.9,801.8,75.9z M805.8,66.3c-2.2-0.1-4.1,1.7-4.1,3.8c-0.1,2.3,1.6,4.2,3.9,4.3c2.2,0.1,4.1-1.7,4.2-3.9
			C809.8,68.2,808,66.4,805.8,66.3z M542.9,70.3c0,2.2,1.8,4.1,4,4c2.2,0,4-1.9,4-4.1c0-2.2-1.8-4-4.1-4
			C544.6,66.3,542.8,68.1,542.9,70.3z M331.9,66.3c-2.2-0.1-4.1,1.7-4.1,3.8c-0.1,2.3,1.6,4.2,3.9,4.2c2.2,0.1,4.1-1.7,4.1-3.9
			C335.9,68.2,334.1,66.4,331.9,66.3z"/>
		<path d="M526.8,86.3c1.2-4.5,2.5-8.9,3.7-13.4c0.4-1.4,0.8-2.8,1.2-4.2c0.1-0.2,0.4-0.5,0.6-0.5c3,0,5.9,0,9,0
			c-0.1,0.3-0.2,0.6-0.2,0.8c-2.9,8.6-5.8,17.3-8.7,25.9c-0.2,0.6-0.4,0.8-1.1,0.8c-3.3,0-6.6,0-9.9,0c-3.1-9.2-6.1-18.3-9.2-27.5
			c3.2,0,6.3,0,9.5,0c1.7,6,3.4,12,5,18.1C526.7,86.3,526.7,86.3,526.8,86.3z"/>
		<path d="M682.2,73.6c-2.4,1.6-4.8,3.2-7.2,4.8c-1.4-1.6-3.2-2.3-5.3-2.1c-1.5,0.2-2.7,0.8-3.7,1.9c-1.9,2.2-1.7,5.9,0.3,7.9
			c2.3,2.2,5.7,2,8.7-0.5c2.4,1.6,4.8,3.1,7.1,4.7c-2.2,3.7-8,7-14.9,5.6c-6.4-1.3-11-6.6-11.4-13.2c-0.4-6.7,3.6-12.5,10-14.4
			C672,66.5,679.3,68.8,682.2,73.6z"/>
		<path d="M294.7,85.6c2.4,1.6,4.8,3.1,7.1,4.7c-2.4,3.9-8.4,7-15.1,5.6c-6.6-1.4-11-6.8-11.2-13.5c-0.2-6.6,3.9-12.2,10.2-14
			c6.7-1.9,13.3,0.9,16.1,5.3c-2.4,1.6-4.8,3.2-7.1,4.7c-3.5-2.6-6.8-2.7-9-0.2c-1.9,2.2-1.8,5.8,0.2,7.9
			C288.2,88.3,291.7,88.2,294.7,85.6z"/>
		<path d="M352.5,77.3c0-3.1,0-6,0-9c2.6,0,5.1,0,7.7,0c0,9.1,0,18.3,0,27.5c-2.5,0-5.1,0-7.7,0c0-0.4,0-0.9-0.1-1.3
			c-0.1,0-0.2,0-0.2,0c-4.6,3.4-10.7,1.9-13-3.3c-1.5-3.4-1.6-6.8-0.2-10.2C341.5,74.8,348.8,74,352.5,77.3z M349.1,82.6
			c-1.9,0-3.2,1.3-3.2,3.2c0,1.9,1.3,3.2,3.2,3.3c1.9,0,3.3-1.3,3.3-3.2C352.3,83.9,351,82.6,349.1,82.6z"/>
		<path d="M423.9,77.2c0-3.1,0-6,0-9c2.6,0,5.1,0,7.7,0c0,9.1,0,18.3,0,27.4c-2.6,0-5.1,0-7.7,0c0-0.4,0-0.9,0-1.3
			c-0.1,0-0.2,0-0.3,0c-4.4,3.3-10.3,2-12.8-2.9c-2.1-4.2-2-8.5,0.7-12.5c2.8-4.2,9-4.6,12-2C423.5,77.1,423.6,77.1,423.9,77.2z
			 M420.4,82.6c-1.9,0-3.2,1.4-3.2,3.3c0,1.9,1.4,3.2,3.2,3.2c1.9,0,3.3-1.4,3.2-3.3C423.6,83.9,422.3,82.6,420.4,82.6z"/>
		<path d="M567.8,95.7c0-0.5,0-0.9,0-1.3c-0.1,0-0.2,0-0.2,0c-4.8,3.5-10.9,1.9-13.2-3.6c-1.5-3.5-1.4-7.1,0.2-10.5
			c2.6-5.5,9.5-6.2,13.1-3.1c0-3,0-6,0-9c2.6,0,5.1,0,7.7,0c0,9.1,0,18.3,0,27.4C573,95.7,570.4,95.7,567.8,95.7z M564.4,82.6
			c-1.9,0-3.2,1.3-3.3,3.1c0,1.9,1.3,3.3,3.1,3.3c1.9,0,3.3-1.3,3.3-3.2C567.6,84,566.3,82.6,564.4,82.6z"/>
		<path d="M745.1,95.7c0-0.5,0-0.9,0-1.3c-0.1,0-0.2,0-0.2,0c-4.6,3.4-10.8,1.9-13.1-3.4c-1.5-3.3-1.5-6.7-0.1-10.1
			c2.4-6.1,9.8-6.9,13.4-3.7c0-3,0-6,0-9c2.6,0,5.1,0,7.7,0c0,9.1,0,18.3,0,27.5C750.2,95.7,747.7,95.7,745.1,95.7z M741.6,89
			c1.9,0,3.2-1.3,3.3-3.2c0-1.9-1.3-3.3-3.2-3.3c-1.9,0-3.2,1.3-3.2,3.2C738.4,87.7,739.7,89,741.6,89z"/>
		<path d="M394.1,95.7c-2.6,0-5.1,0-7.7,0c0-6.6,0-13.2,0-19.8c2.5,0,5,0,7.7,0c0,0.6,0,1.2,0,1.9c0.4-0.3,0.6-0.5,0.8-0.7
			c3-2.7,8.3-2.2,10.5,1.1c0.9,1.3,1.4,2.7,1.4,4.2c0.1,4.3,0.1,8.6,0.1,12.9c0,0.1,0,0.2-0.1,0.4c-2.5,0-5.1,0-7.7,0
			c0-0.3,0-0.6,0-0.9c0-2.9,0-5.8,0-8.7c0-0.5,0-1.1-0.2-1.6c-0.3-1.1-1.2-1.6-2.4-1.5c-1.2,0-2,0.6-2.3,1.6c-0.1,0.5-0.2,1-0.2,1.5
			C394.1,89.3,394.1,92.5,394.1,95.7z"/>
		<path d="M720.3,95.7c0-3.1,0-6.1,0-9c0-0.4,0-0.9,0-1.3c-0.1-1.4-0.9-2.2-2.2-2.3c-1.5-0.1-2.4,0.5-2.7,2
			c-0.1,0.4-0.1,0.8-0.1,1.2c0,3.1,0,6.2,0,9.4c-2.6,0-5.1,0-7.7,0c0-6.6,0-13.1,0-19.7c2.5,0,5.1,0,7.7,0c0,0.6,0,1.2,0,1.9
			c0.3-0.3,0.6-0.5,0.8-0.7c2.8-2.7,9.7-2.7,11.5,2.9c0.3,1,0.5,2.2,0.6,3.3c0.1,4,0,8,0,12c0,0.1,0,0.3-0.1,0.4
			C725.5,95.7,722.9,95.7,720.3,95.7z"/>
		<path d="M769.2,75.9c2.6,0,5.1,0,7.7,0c0,6.6,0,13.2,0,19.8c-2.5,0-5.1,0-7.7,0c0-0.6,0-1.1,0-1.8c-0.2,0.1-0.3,0.1-0.3,0.1
			c-2,2.1-4.4,2.6-7.1,2c-3-0.6-5.1-3-5.2-6.4c-0.2-4.5,0-9.1,0-13.6c2.5,0,5.1,0,7.7,0c0,0.3,0,0.6,0,0.9c0,3.1,0,6.1,0,9.2
			c0,1.8,1,2.7,2.8,2.6c1.4-0.1,2.2-1,2.2-2.7c0-3,0-6,0-9C769.2,76.6,769.2,76.3,769.2,75.9z"/>
		<path d="M303.9,75.9c2.6,0,5.1,0,7.7,0c0,0.3,0,0.6,0,0.9c0,3.1,0,6.1,0,9.2c0,1.8,1,2.7,2.7,2.6c1.4-0.1,2.2-1,2.3-2.7
			c0-2.9,0-5.8,0-8.8c0-0.4,0-0.8,0-1.2c2.6,0,5.1,0,7.7,0c0,6.6,0,13.1,0,19.8c-2.5,0-5,0-7.7,0c0-0.6,0-1.2,0-1.9
			c-0.2,0.2-0.3,0.2-0.4,0.3c-2,2-4.4,2.5-7.1,1.9c-2.9-0.6-5-2.9-5.2-6.4C303.7,85.1,303.9,80.5,303.9,75.9z"/>
		<path d="M456,85.2c-0.1,7.4-5.7,11.6-12.2,11c-4.3-0.4-7.6-2.5-9.1-6.7c-2.4-6.5,1.8-13.1,8.7-13.9c2.5-0.3,4.9,0,7.1,1.1
			C454.2,78.5,455.9,81.7,456,85.2z M448.3,85.8c0-1.9-1.4-3.2-3.2-3.2c-1.9,0-3.2,1.3-3.2,3.2c0,1.9,1.4,3.3,3.3,3.3
			C446.9,89,448.3,87.7,448.3,85.8z"/>
		<path d="M683,86.9c0-7.8,5.5-12.1,12.1-11.5c3.9,0.4,7,2.1,8.8,5.7c3.2,6.5-1,14.1-8.3,14.9c-3.7,0.4-7-0.4-9.8-3
			C683.8,91.1,683,88.6,683,86.9z M693.9,89c1.9,0,3.2-1.3,3.2-3.2c0-1.9-1.4-3.3-3.3-3.2c-1.9,0-3.2,1.4-3.2,3.3
			C690.7,87.7,692.1,89.1,693.9,89z"/>
		<path d="M382.7,95.7c-2.6,0-5.1,0-7.7,0c0-0.6,0-1.1,0-1.9c-1.3,1.4-2.7,2.1-4.4,2.3c-1.8,0.2-3.6-0.1-5.2-1
			c-3.6-2.1-3.4-7.7,0.5-9.9c2-1.2,4.3-1.4,6.6-1.5c0.8,0,1.5,0,2.3,0c0-1.6-0.8-2.6-2.4-2.5c-1.1,0.1-2.2,0.5-3.3,0.8
			c-0.2,0.1-0.6,0.2-0.7,0.1c-1.4-0.9-2.9-1.9-4.3-2.9c1.9-2,4.1-3.1,6.7-3.5c2.3-0.4,4.6-0.3,6.8,0.4c3.1,1,4.8,3.3,5,6.4
			C382.8,86.9,382.7,91.3,382.7,95.7z M374.9,87c-1.2,0.3-2.2,0.4-3.2,0.7c-0.9,0.3-1.2,1.3-0.8,2.1c0.4,0.8,1.2,0.8,1.9,0.7
			c1.1-0.1,2.1-0.8,2.1-1.4C375,88.5,374.9,87.9,374.9,87z"/>
		<path d="M491.7,83.7c0-1.7-0.9-2.6-2.4-2.5c-1.1,0.1-2.1,0.5-3.2,0.7c-0.2,0.1-0.6,0.2-0.7,0.1c-1.5-1-2.9-2-4.4-3
			c1.6-1.7,3.4-2.7,5.5-3.3c2.2-0.6,4.4-0.6,6.6-0.2c3.7,0.7,6.1,2.9,6.3,6.7c0.3,4.4,0.1,8.9,0.1,13.4c-2.5,0-5.1,0-7.7,0
			c0-0.5,0-1.1-0.1-1.8c-1.2,1.3-2.7,2-4.3,2.2c-1.8,0.2-3.6-0.1-5.2-1c-3.6-2.1-3.3-7.7,0.5-9.9c2-1.1,4.3-1.4,6.5-1.5
			C490.1,83.7,490.9,83.7,491.7,83.7z M491.8,87c-1.2,0.3-2.2,0.4-3.2,0.7c-0.9,0.3-1.2,1.3-0.8,2.1c0.4,0.8,1.2,0.8,1.9,0.7
			c1.1-0.1,2.1-0.8,2.2-1.4C491.8,88.5,491.8,87.9,491.8,87z"/>
		<path d="M597.9,95.7c-2.5,0-5,0-7.6,0c0-0.6-0.1-1.1-0.1-1.7c-2.2,2.2-4.8,2.7-7.6,1.9c-2.6-0.7-4-2.3-4.3-4.6
			c-0.3-2.6,0.7-4.8,3-6c2-1.1,4.3-1.4,6.5-1.5c0.8,0,1.6,0,2.3,0c0.1-1.5-0.7-2.5-2.1-2.5c-1.1,0-2.3,0.4-3.4,0.7
			c-0.5,0.2-0.8,0.2-1.2-0.1c-1.3-0.9-2.6-1.8-4-2.7c1.1-1.3,2.4-2.1,3.9-2.7c2.9-1.2,5.9-1.4,8.9-0.6c3.5,0.9,5.6,3.2,5.7,6.8
			c0.1,4.3,0,8.6,0,12.8C597.9,95.6,597.9,95.6,597.9,95.7z M590.2,87c-1.2,0.3-2.2,0.4-3.2,0.7c-0.9,0.3-1.2,1.3-0.8,2.1
			c0.3,0.6,1.1,0.9,2,0.7c0.8-0.2,1.8-0.4,2-1.4C590.3,88.5,590.2,87.9,590.2,87z"/>
		<path d="M623.2,95.7c0-0.5,0-1.1,0-1.7c-0.4,0.4-0.7,0.6-1,0.9c-2.4,1.9-6.7,1.8-9.1-0.1c-2.8-2.2-2.6-6.9,0.4-9
			c1.6-1.2,3.5-1.7,5.5-1.9c1.4-0.1,2.8-0.1,4.2-0.2c0-1.4-0.7-2.5-2.1-2.4c-1.2,0.1-2.3,0.5-3.5,0.7c-0.3,0.1-0.6,0.2-0.8,0
			c-1.4-0.9-2.8-1.9-4.3-2.9c1.4-1.5,3-2.5,4.8-3.1c2.7-0.9,5.5-1,8.3-0.2c3.2,0.9,5.2,3.3,5.3,6.7c0.1,4.3,0,8.7,0,13.1
			C628.3,95.7,625.8,95.7,623.2,95.7z M623,87.1c-1.1,0.2-2.2,0.4-3.2,0.7c-0.7,0.3-1,0.9-0.8,1.7c0.2,0.8,0.8,1,1.5,1
			C622.7,90.3,623.6,89.7,623,87.1z"/>
		<path d="M799.9,80.2c-2.2,1.4-4.3,2.7-6.5,4c-0.7-1-1.6-1.6-2.9-1.6c-0.9,0-1.8,0.3-2.4,0.9c-1.2,1.2-1.1,3.5,0.1,4.7
			c1.5,1.3,3.6,1.1,5.2-0.8c2.1,1.3,4.3,2.6,6.5,3.9c-1.2,1.9-2.8,3.1-4.8,4c-4.2,1.8-9.5,0.9-12.6-2.1c-3-2.9-3.7-6.5-2.6-10.5
			c1.1-3.8,3.8-6.1,7.6-7c4.1-0.9,7.9-0.1,11,2.8c0.3,0.2,0.5,0.5,0.7,0.8C799.5,79.6,799.7,79.8,799.9,80.2z"/>
		<path d="M634.6,68.2c2.6,0,5.1,0,7.6,0c0,9.2,0,18.3,0,27.5c-2.5,0-5,0-7.6,0C634.6,86.6,634.6,77.4,634.6,68.2z"/>
		<path d="M477.2,68.2c0,9.2,0,18.3,0,27.5c-2.6,0-5.1,0-7.7,0c0-9.1,0-18.3,0-27.5C472.1,68.2,474.6,68.2,477.2,68.2z"/>
		<path d="M813.2,75.9c2.6,0,5.1,0,7.7,0c0,1,0,1.9,0,2.8c1.6-1.9,3.4-3.2,6-3.3c0,2.7,0,5.4,0,8.1c-0.9,0-1.7-0.1-2.6,0
			c-1.9,0.2-3.1,1.2-3.2,3.1c-0.2,2-0.1,4-0.1,6c0,1,0,2,0,3.1c-2.6,0-5.1,0-7.7,0C813.2,89.1,813.2,82.6,813.2,75.9z"/>
		<path d="M335.6,95.7c-2.6,0-5.1,0-7.6,0c0-6.6,0-13.2,0-19.8c2.5,0,5,0,7.6,0C335.6,82.5,335.6,89.1,335.6,95.7z"/>
		<path d="M550.7,95.7c-2.6,0-5.1,0-7.7,0c0-6.6,0-13.1,0-19.8c2.5,0,5.1,0,7.7,0C550.7,82.5,550.7,89.1,550.7,95.7z"/>
		<path d="M801.8,75.9c2.6,0,5.1,0,7.6,0c0,6.6,0,13.2,0,19.8c-2.5,0-5,0-7.6,0C801.8,89.1,801.8,82.6,801.8,75.9z"/>
		<path d="M805.8,66.3c2.3,0.1,4,1.9,3.9,4.1c-0.1,2.2-2,4-4.2,3.9c-2.3-0.1-4-2-3.9-4.3C801.7,67.9,803.6,66.2,805.8,66.3z"/>
		<path d="M542.9,70.3c0-2.2,1.8-4,4-4c2.2,0,4.1,1.8,4.1,4c0,2.2-1.8,4.1-4,4.1C544.7,74.4,542.9,72.5,542.9,70.3z"/>
		<path d="M331.9,66.3c2.2,0.1,4,1.9,3.9,4.1c-0.1,2.2-2,4-4.1,3.9c-2.3-0.1-4-2-3.9-4.2C327.8,67.9,329.7,66.2,331.9,66.3z"/>
		<path class="st9" d="M349.1,82.6c1.9,0,3.2,1.4,3.2,3.2c0,1.9-1.4,3.3-3.3,3.2c-1.9,0-3.2-1.4-3.2-3.3
			C345.9,83.9,347.3,82.6,349.1,82.6z"/>
		<path class="st9" d="M420.4,82.6c1.9,0,3.2,1.3,3.3,3.2c0.1,1.9-1.3,3.3-3.2,3.3c-1.9,0-3.2-1.3-3.2-3.2
			C417.2,84,418.5,82.6,420.4,82.6z"/>
		<path class="st9" d="M564.4,82.6c1.9,0,3.2,1.4,3.2,3.3c0,1.9-1.4,3.2-3.3,3.2c-1.9,0-3.2-1.4-3.1-3.3
			C561.2,83.9,562.6,82.5,564.4,82.6z"/>
		<path class="st9" d="M741.6,89c-1.9,0-3.2-1.4-3.2-3.2c0-1.9,1.4-3.2,3.2-3.2c1.9,0,3.3,1.4,3.2,3.3
			C744.8,87.8,743.5,89.1,741.6,89z"/>
		<path class="st9" d="M448.3,85.8c0,1.9-1.3,3.2-3.2,3.2c-1.9,0-3.3-1.4-3.3-3.3c0-1.9,1.4-3.2,3.2-3.2
			C446.9,82.6,448.3,83.9,448.3,85.8z"/>
		<path class="st9" d="M693.9,89c-1.9,0-3.2-1.3-3.2-3.2c0-1.9,1.3-3.2,3.2-3.3c1.9,0,3.3,1.4,3.3,3.2C697.2,87.7,695.8,89,693.9,89
			z"/>
		<path class="st9" d="M374.9,87c0,0.9,0,1.5,0,2c0,0.6-1.1,1.3-2.1,1.4c-0.7,0.1-1.5,0.1-1.9-0.7c-0.4-0.7,0-1.8,0.8-2.1
			C372.7,87.4,373.7,87.3,374.9,87z"/>
		<path class="st9" d="M491.8,87c0,0.9,0,1.5,0,2c0,0.6-1.1,1.3-2.2,1.4c-0.7,0.1-1.5,0.1-1.9-0.7c-0.4-0.7,0-1.8,0.8-2.1
			C489.5,87.4,490.6,87.3,491.8,87z"/>
		<path class="st9" d="M590.2,87c0,0.9,0.1,1.5,0,2c-0.2,1-1.2,1.2-2,1.4c-0.9,0.2-1.7-0.1-2-0.7c-0.4-0.7,0-1.8,0.8-2.1
			C587.9,87.4,589,87.3,590.2,87z"/>
		<path class="st9" d="M623,87.1c0.6,2.7-0.3,3.2-2.5,3.4c-0.7,0.1-1.3-0.2-1.5-1c-0.2-0.8,0.1-1.5,0.8-1.7
			C620.8,87.5,621.9,87.3,623,87.1z"/>
	</g>
</g>
</svg>
