<?xml version="1.0" encoding="utf-8"?>
<!-- Generator: Adobe Illustrator 23.0.5, SVG Export Plug-In . SVG Version: 6.00 Build 0)  -->
<svg version="1.1" id="Capa_1" xmlns="http://www.w3.org/2000/svg" xmlns:xlink="http://www.w3.org/1999/xlink" x="0px" y="0px"
	 viewBox="0 0 867 726" style="enable-background:new 0 0 867 726;" xml:space="preserve">
<style type="text/css">
	.st0{display:none;}
	.st1{fill:#131111;stroke:#000000;stroke-width:2;stroke-miterlimit:10;}
	.st2{fill:none;stroke:#000000;stroke-miterlimit:10;}
	.st3{fill:#131311;stroke:#000000;stroke-width:2;stroke-miterlimit:10;}
	.st4{fill:none;stroke:#000000;stroke-width:2;stroke-miterlimit:10;}
	.st5{fill:#666666;stroke:#000000;stroke-width:2;stroke-miterlimit:10;}
	.st6{fill:#333333;stroke:#000000;stroke-width:2;stroke-miterlimit:10;}
	.st7{fill:#333333;stroke:#000000;stroke-miterlimit:10;}
	.st8{font-family:'FuturaBT-ExtraBlack';}
	.st9{font-size:40.5988px;}
</style>
<g class="st0">
	
		<image style="display:inline;overflow:visible;enable-background:new    ;" width="626" height="469" xlink:href="imgs/carroAzul.jpg"  transform="matrix(0.75 0 0 0.75 155 139)">
	</image>
</g>
<g>
	<path class="st1" d="M23.9,313.7c0,0-1.8-1.8-1.8-9.1l-2.4-1.8c0,0,6.6-5.5,32.3-9.1l29.9-2.4h10.2l3,1.8c0,0,26.9-15.8,32.3-18.3
		c0,0,10.8-3,17.4-3.7l31.1-0.6l18.5,3.7c0,0,26.3,8.2,35.3,13.6c0.2,0.1,0.4,0.2,0.6,0.4l17.4,0.6l8.4-3.7c0,0,3-0.6,2.4,1.2
		c-0.6,1.8-2.4,3-2.4,3s2.4,12.8,2.4,18.9h2.4l3.6,3l-1.8,14l-6,6.1l-28.1,3.7c0,0,4.8-28.6-22.7-29.2c0,0-25.7,0-20.9,31.1l0.6,1.2
		l-99.9-0.6c0,0,6.6-29.8-20.3-31.7c0,0-25.1-3-22.7,29.8v0.6H18.5v-1.2h2.4l-1.2-3h3l-1.2-7.9c0,0-5.4,0-5.4-2.4s0-4.9,0-4.9
		l1.2-1.8h7.2L23.9,313.7"/>
	<path class="st2" d="M86.1,333.2h-3.6c-5.4,10.4-10.2,11.6-10.2,11.6s-3,2.4-12,1.8s-15-12.8-15-12.8l-3-0.2"/>
	<ellipse class="st3" cx="64" cy="326.8" rx="19.1" ry="19.8"/>
	<ellipse class="st3" cx="206.1" cy="327.1" rx="19.1" ry="19.8"/>
	<line class="st4" x1="184.5" y1="336" x2="188.7" y2="336"/>
	<line class="st4" x1="224.6" y1="332.3" x2="228.8" y2="332.3"/>
	<path class="st5" d="M25.4,325.6c0,0,2.7,0.3,3.9,1.5c1.2,1.2,1.2,4.9,1.2,4.9s0,1.8-2.4,1.2c-2.4-0.6-3-3-3-3s0-1.8,0-2.4
		s0-2.4,0-2.4L25.4,325.6z"/>
	<polygon class="st5" points="24.5,322.3 38.8,322.3 38.8,321.7 40,321 40,320.4 38.8,319.8 38.8,319.2 24.5,319.2 	"/>
	<path class="st5" d="M22.1,305.1l2.9,0.1c0,0,0.6,8.5,2.4,9.7h-3"/>
	<path class="st5" d="M26.9,305.8c0,0,0.6,7.9,3,9.1h5.4c0,0,1.8-2.4,0.6-4.3s-2.4-4.3-2.4-4.3v-0.6H26.9z"/>
	<path class="st6" d="M95.1,293l5.4,3c0,0,21.5-17.7,31.1-18.9l-5.4-1.8"/>
	<path class="st6" d="M120.8,288.8l-1.2,1.2l-4.8,1.2v1.8l4.8,1.2l4.8,0.6c0,0,2.4,0,3.6-1.8c1.2-1.8,0-3.7,0-3.7l-1.8-1.2H122
		l-1.8,0.6v-1.2l10.2-6.1l11.4-4.3c0,0,20.9,0,26.3,0c5.4,0,6.6,2.4,6.6,2.4l-3.6,14l-63.4,1.8c1.2-0.6,6.6-4.9,6.6-4.9l5.4-3
		l1.2-0.6"/>
	<polygon class="st6" points="185.4,278.4 183,290 208.2,290 208.2,285.7 	"/>
	<path class="st5" d="M256.6,295.5c0,0-1.8-0.6-3,3s1.8,6.1,1.8,6.1l2.4,0.6"/>
	<path class="st7" d="M46,333.6l-3.8-0.2l0.7-9.9c0,0,0.8-6.3,4.3-10.1c3.5-3.9,6.7-5.5,6.7-5.5s5-2.7,9.6-2l3.4,0.2
		c0,0,6.5,1.5,7.4,1.9s4.3,2.3,5.3,3.5c1,1.2,2.9,3.7,3.4,4.9c0.6,1.2,2.4,4.9,2.4,6.1c0,1.2,0.7,8.5,0.7,8.5l-0.1,1.8l-3.6,0.1
		l0.5-4.6l-0.4-5.6l-1.6-4.6l-2.2-3.5l-3.6-3.7l-5.2-2.4l-4.3-1.2l-4.8-0.1l-4,1.3l-3.9,2.5l-2.5,2.2l-2.8,3.2l-1.8,3l-1.1,5.2
		l0.7,7.4l-0.1,0.7L46,333.6z"/>
	<path class="st7" d="M184.8,335.1h3l-0.7-6.2l0.2-5.7l2.3-5.9l4.2-5.4l4.3-2.6l5.1-1.8l4-0.1l4.1,0.7l3.1,1.2c0,0,1.6,0.1,4,2.5
		c2.4,2.4,3.1,3.8,3.1,3.8l1.4,2.1l1.5,3.8l0.6,3.7v4.9l-0.4,1.5l3.9,0.3l0.2-4l-0.7-5.2l-1.7-5.1l-2-4.7l-3.1-2.4l-3.5-2.4l-2.7-1
		l-5.1-1.2l-6.5-0.4l-4.5,1.2c0,0-0.3,0-3.9,1.8c-3.6,1.8-4.8,3.7-4.8,3.7l-3,3.7l-1.2,3l-1.2,3.7l-0.6,4.9L184.8,335.1z"/>
</g>
<text transform="matrix(0.94 0 0 1 276.201 322.0137)" class="st8 st9">Cuidando la vida al conducir</text>
</svg>
