<?xml version="1.0" encoding="utf-8"?>
<!-- Generator: Adobe Illustrator 23.0.5, SVG Export Plug-In . SVG Version: 6.00 Build 0)  -->
<svg version="1.1" id="Capa_1" xmlns="http://www.w3.org/2000/svg" xmlns:xlink="http://www.w3.org/1999/xlink" x="0px" y="0px"
	 viewBox="0 0 229.1 391.2" style="enable-background:new 0 0 229.1 391.2;" xml:space="preserve">
<style type="text/css">
	.st0{fill:#E1FF99;stroke:#000000;stroke-width:0.5;stroke-miterlimit:10;}
	.st1{fill:#FFFFFF;stroke:#000000;stroke-width:0.5;stroke-miterlimit:10;}
	.st2{fill:#ADC163;stroke:#000000;stroke-width:0.5;stroke-miterlimit:10;}
	.st3{fill:#ADC163;}
	.st4{font-family:'ArialRoundedMTBold';}
	.st5{font-size:6.64px;}
	.st6{clip-path:url(#SVGID_2_);}
	.st7{fill:none;}
	.st8{font-family:'MyriadPro-Regular';}
	.st9{font-size:8px;}
	.st10{fill:#F9F9F9;}
	.st11{fill:#E68A0B;}
	.st12{fill:#00A03D;}
	.st13{fill:#FFFFFF;}
	.st14{fill:#242424;}
	.st15{fill:none;stroke:#F7F9F8;stroke-width:0.25;stroke-miterlimit:10;}
	.st16{fill:none;stroke:#F7F9F8;stroke-width:0.1;stroke-miterlimit:10;}
	.st17{stroke:#000000;stroke-width:0.25;stroke-miterlimit:10;}
	.st18{font-size:4.2114px;}
	.st19{fill:#F7F7F7;stroke:#F7F9F8;stroke-width:0.25;stroke-miterlimit:10;}
	.st20{clip-path:url(#SVGID_4_);fill:#3E7741;}
	.st21{clip-path:url(#SVGID_6_);fill:#3E7741;}
	.st22{clip-path:url(#SVGID_8_);fill:#3E7741;}
	.st23{clip-path:url(#SVGID_10_);fill:#3E7741;}
	.st24{clip-path:url(#SVGID_12_);fill:#FFCB40;}
	.st25{clip-path:url(#SVGID_14_);fill:#FFCB40;}
	.st26{clip-path:url(#SVGID_16_);fill:#FFCB40;}
	.st27{clip-path:url(#SVGID_18_);fill:#064409;}
	.st28{clip-path:url(#SVGID_20_);fill:#064409;}
	.st29{clip-path:url(#SVGID_22_);fill:#064409;}
	.st30{clip-path:url(#SVGID_24_);fill:#064409;}
	.st31{clip-path:url(#SVGID_26_);fill:#FCFCFC;}
	.st32{clip-path:url(#SVGID_28_);fill:#FFAE8D;}
	.st33{clip-path:url(#SVGID_30_);fill:#2D2D2D;}
	.st34{clip-path:url(#SVGID_32_);fill:#511E17;}
	.st35{clip-path:url(#SVGID_34_);fill:#FFC740;}
	.st36{clip-path:url(#SVGID_36_);fill:#101010;}
	.st37{clip-path:url(#SVGID_38_);fill:#330E0B;}
	.st38{clip-path:url(#SVGID_40_);fill:#FF8E7C;}
	.st39{clip-path:url(#SVGID_42_);fill:#FFB99D;}
	.st40{clip-path:url(#SVGID_44_);fill:#064409;}
	.st41{clip-path:url(#SVGID_46_);fill:#064409;}
	.st42{clip-path:url(#SVGID_48_);fill:#3E7741;}
	.st43{clip-path:url(#SVGID_50_);fill:#064409;}
	.st44{clip-path:url(#SVGID_52_);fill:#064409;}
	.st45{clip-path:url(#SVGID_54_);fill:#064409;}
	.st46{clip-path:url(#SVGID_56_);fill:#064409;}
	.st47{clip-path:url(#SVGID_58_);fill:#F9EC06;}
	.st48{clip-path:url(#SVGID_60_);fill:#064409;}
	.st49{clip-path:url(#SVGID_62_);fill:#032304;}
	.st50{clip-path:url(#SVGID_64_);fill:#032304;}
	.st51{clip-path:url(#SVGID_66_);fill:#032304;}
	.st52{clip-path:url(#SVGID_68_);fill:#032304;}
	.st53{clip-path:url(#SVGID_70_);fill:#FFB99D;}
	.st54{clip-path:url(#SVGID_72_);fill:#FFFEF9;}
	.st55{clip-path:url(#SVGID_74_);fill:none;stroke:#BC978E;stroke-width:2;stroke-miterlimit:10;}
	.st56{clip-path:url(#SVGID_76_);fill:none;stroke:#AF8D84;stroke-width:2;stroke-miterlimit:10;}
	.st57{clip-path:url(#SVGID_78_);}
	.st58{fill:none;stroke:#000000;stroke-miterlimit:10;}
	.st59{fill:none;stroke:#000000;stroke-width:0.75;stroke-miterlimit:10;}
	.st60{stroke:#000000;stroke-miterlimit:10;}
	.st61{clip-path:url(#SVGID_80_);fill:#FEB08D;}
	.st62{clip-path:url(#SVGID_82_);fill:none;stroke:#000000;stroke-miterlimit:10;}
	.st63{clip-path:url(#SVGID_84_);}
	.st64{clip-path:url(#SVGID_86_);fill:#F1E38F;}
	.st65{clip-path:url(#SVGID_88_);fill:#FACA39;}
	.st66{clip-path:url(#SVGID_90_);fill:#FACA39;}
	.st67{clip-path:url(#SVGID_92_);fill:#1A1C20;}
	.st68{clip-path:url(#SVGID_94_);fill:#1A1C20;}
	.st69{clip-path:url(#SVGID_96_);fill:#1A1C20;}
	.st70{clip-path:url(#SVGID_98_);fill:#333333;}
	.st71{clip-path:url(#SVGID_100_);fill:#121212;}
	.st72{clip-path:url(#SVGID_102_);fill:#1B1C15;}
	.st73{clip-path:url(#SVGID_104_);fill:#2D2D2D;}
	.st74{clip-path:url(#SVGID_106_);fill:#1C1B1A;}
	.st75{clip-path:url(#SVGID_108_);fill:#1C1B1A;}
	.st76{clip-path:url(#SVGID_110_);fill:#1C1B1A;}
	.st77{clip-path:url(#SVGID_112_);fill:#1B1000;}
	.st78{clip-path:url(#SVGID_114_);fill:#1B1000;}
	.st79{clip-path:url(#SVGID_116_);fill:#3A2000;}
	.st80{clip-path:url(#SVGID_118_);fill:#4B3111;}
	.st81{clip-path:url(#SVGID_120_);}
	.st82{fill:#191100;}
	.st83{fill:#3A2000;}
	.st84{fill:#4B3111;}
	.st85{clip-path:url(#SVGID_122_);fill:#D1CFCD;}
	.st86{clip-path:url(#SVGID_124_);fill:#CCA69A;}
	.st87{clip-path:url(#SVGID_126_);}
	.st88{font-size:5.2673px;}
	.st89{font-size:2.7728px;}
</style>
<g>
	<path class="st0" d="M7,72.7L6.8,98.2c0,0-1,6.1,4.6,5.9s22.7,0.2,22.7,0.2l7.1,0.2l1-45.6L12.7,58c0,0-6.2-0.5-6,5.4
		C6.9,69.4,7,72.7,7,72.7z"/>
	<polyline class="st1" points="42.5,61.1 44.1,61.3 42.7,104.3 41.5,104.2 	"/>
	<path class="st2" d="M44.4,62.7l2,0.2l-1.6,43.4l-35-0.6c0,0-3.3-2.7-3.2-7.3c0,0,0.1,5,2.3,5.6s1,0.4,1,0.4l5-0.1l2.1-0.1
		l24.5,0.5v-0.1l1.6,0.1L44.4,62.7z"/>
	<path class="st3" d="M16.3,58.5L12,58.4c0,0-3.3-0.3-4.6,2.6l-0.1,6.9l0.2,7.4C7.5,75.2,10.3,59.2,16.3,58.5z"/>
	<path class="st3" d="M23.4,103.5l-13.3,0.1c0,0-1.6,0.2-3-2.7L7,94l0.3-13.1C7.4,80.7,17.5,102.7,23.4,103.5z"/>
</g>
<text transform="matrix(0.8804 7.897001e-03 -8.734559e-03 1 8.6914 67.5457)" class="st4 st5">Educacion</text>
<text transform="matrix(0.8804 7.897001e-03 -8.734559e-03 1 8.6216 75.5459)" class="st4 st5">      Vial</text>
<g>
	<g>
		<g>
			<defs>
				<path id="SVGID_1_" d="M10.6,80.2c0,0,11.2-7.6,24.4-0.2c0,0,1.5,7.2-0.4,10.9c0,0-1.9,8.4-11.9,12.7c0,0-9.1-4-11.8-12.7
					C11,91,9.3,86.4,10.6,80.2z"/>
			</defs>
			<clipPath id="SVGID_2_">
				<use xlink:href="#SVGID_1_"  style="overflow:visible;"/>
			</clipPath>
			<g transform="matrix(1 0 0 1 0 0)" class="st6">
				
					<image style="overflow:visible;enable-background:new    ;" width="400" height="400" xlink:href="imgs/logo digeset.jpg"  transform="matrix(8.815213e-02 0 0 7.680593e-02 5.1029 75.2777)">
				</image>
			</g>
		</g>
	</g>
	<path class="st7" d="M10.6,80.2c0,0,12.4-6.9,24.3,0.5c0,0,1,7-0.3,10.2s-1.8,3.8-1.8,3.8L30.4,98l-2.1,2l-2.5,1.7l-3.2,1.6l-3-1.6
		l-3.3-2.9l-3.2-3.2l-1.8-3.5l-1.1-4.7l0.1-2.9l0.4-4.2l0-0.1L10.6,80.2z"/>
	<text transform="matrix(1 0 0 1 17.436 82.939)"><tspan x="0" y="0" class="st8 st9">Lo</tspan><tspan x="-5.9" y="9.6" class="st8 st9">rem i</tspan></text>
	<polyline points="24.7,91.1 25.1,86.9 25.1,86.8 	"/>
	<path class="st10" d="M10.8,80.5c0,0,12.2-6.7,23.8,0.5c0,0,1,6.8-0.3,10s-1.7,3.7-1.7,3.7L30.3,98l-2.1,2l-2.4,1.7l-3.2,1.7
		l-2.8-1.7l-3.3-2.7l-3.1-3.2l-1.8-3.4l-1-4.6l0.1-2.8l0.4-4.1l0-0.1L10.8,80.5z"/>
	<path class="st11" d="M11.1,81c0,0,11.9-6.5,23.3,0.4c0,0,0.9,6.6-0.3,9.6c-1.2,3-1.7,3.6-1.7,3.6l-2.3,3.1l-2,1.9l-2.4,1.6l-3,1.5
		l-2.9-1.5l-3.2-2.8l-3.1-3l-1.7-3.3l-1-4.4l0.1-2.7l0.4-3.9l0-0.1L11.1,81z"/>
	<path class="st12" d="M11.5,81.4c0,0,11.3-6.3,22.3,0.4c0,0,0.9,6.4-0.3,9.4c-1.2,3-1.6,3.5-1.6,3.5l-2.2,3l-1.9,1.9l-2.3,1.5
		l-2.9,1.5l-2.6-1.6l-2.9-2.8l-2.9-3l-2-2.8l-1-4.3l0.1-2.6l0.4-3.8l0-0.1L11.5,81.4z"/>
	<path class="st13" d="M11.3,88.6l1.2,4.7l20.4-0.1c0,0,1.5-4,1.2-4.3C33.8,88.6,11.3,88.6,11.3,88.6z"/>
	<polygon class="st14" points="18.3,93.2 16,97.2 20.1,101.1 22.6,102.6 25.9,101 29.6,97.9 26.3,93.2 	"/>
	<line class="st15" x1="22.7" y1="102.5" x2="22.6" y2="99.1"/>
	<line class="st15" x1="22.6" y1="98.4" x2="22.5" y2="96.1"/>
	<line class="st15" x1="22.5" y1="95.3" x2="22.5" y2="93.7"/>
	<line class="st16" x1="16" y1="97.6" x2="18.3" y2="93.6"/>
	<line class="st16" x1="29.4" y1="98" x2="26.3" y2="93.5"/>
	<text transform="matrix(0.9448 0 0 1 13.1562 92.3033)" class="st17 st8 st18">DIGESETT</text>
	<g>
		<g>
			<path class="st19" d="M13.4,81.6c0.2-0.1,0.4-0.2,0.7-0.2c0.4-0.1,0.7,0,0.9,0.1c0.2,0.1,0.3,0.4,0.4,0.7c0.1,0.3,0,0.6-0.1,0.8
				c-0.1,0.3-0.4,0.5-0.8,0.5c-0.1,0-0.2,0-0.3,0c0.1,0.6,0.2,0.8,0.3,1.4c-0.1,0-0.2,0-0.3,0.1C13.8,83.6,13.7,82.9,13.4,81.6z
				 M14.1,83.2c0.1,0,0.2,0,0.3,0c0.4-0.1,0.6-0.4,0.6-0.9c-0.1-0.5-0.4-0.6-0.8-0.5c-0.2,0-0.3,0.1-0.3,0.1
				C13.9,82.4,14,82.6,14.1,83.2z"/>
			<path class="st19" d="M19.1,82.4c0.1,1.2-0.4,1.9-1.1,2c-0.7,0.1-1.3-0.5-1.5-1.6c-0.2-1.1,0.3-1.9,1.1-2
				C18.5,80.6,19,81.3,19.1,82.4z M17,82.7c0.1,0.7,0.5,1.4,1.1,1.3c0.6-0.1,0.8-0.8,0.7-1.6c-0.1-0.7-0.4-1.4-1.1-1.3
				C17.1,81.2,16.9,81.9,17,82.7z"/>
			<path class="st19" d="M20.4,80.6c0.2,0,0.2,0,0.4,0c0.1,1.3,0.1,1.9,0.2,3.1c0.5,0,0.7,0,1.2,0c0,0.2,0,0.2,0,0.4
				c-0.6,0-0.9,0-1.5,0.1C20.5,82.7,20.4,82,20.4,80.6z"/>
			<path class="st19" d="M23.7,80.5c0,1.4,0,2.1,0,3.5c-0.1,0-0.2,0-0.3,0c0-1.4,0-2.1,0-3.5C23.4,80.5,23.5,80.5,23.7,80.5z"/>
			<path class="st19" d="M26.9,84.1c-0.1,0.1-0.4,0.1-0.7,0.1c-0.8-0.1-1.3-0.7-1.2-1.9c0-1.1,0.7-1.8,1.6-1.8
				c0.4,0,0.6,0.1,0.7,0.2c0,0.1-0.1,0.2-0.1,0.4C27,81,26.8,81,26.5,80.9c-0.7-0.1-1.2,0.5-1.2,1.4c0,0.9,0.3,1.4,1,1.5
				c0.2,0,0.4,0,0.6-0.1C26.9,83.8,26.9,83.9,26.9,84.1z"/>
			<path class="st19" d="M29,80.9c-0.2,1.4-0.3,2.1-0.5,3.5c-0.1,0-0.2,0-0.3,0c0.2-1.4,0.3-2.1,0.4-3.5
				C28.7,80.8,28.8,80.8,29,80.9z"/>
			<path class="st19" d="M30.5,83.6c-0.2,0.4-0.3,0.6-0.5,1c-0.1,0-0.2,0-0.4-0.1c0.6-1.3,0.9-2,1.5-3.3c0.2,0,0.3,0.1,0.4,0.1
				c0.1,1.5,0.2,2.2,0.2,3.6c-0.1,0-0.2,0-0.4-0.1c0-0.5,0-0.7-0.1-1.1C31.1,83.7,30.9,83.6,30.5,83.6z M31.5,83.4
				c0-0.4,0-0.6-0.1-1c0-0.2,0-0.5,0-0.7c0,0,0,0,0,0c-0.1,0.2-0.2,0.4-0.3,0.6c-0.2,0.4-0.3,0.6-0.5,1C31,83.3,31.2,83.3,31.5,83.4
				z"/>
			<path class="st19" d="M15.7,87.8c-0.2-0.9-0.3-1.4-0.5-2.3c0.1,0,0.1,0,0.2,0c0.3,0.4,0.5,0.6,0.8,1.1c0.2,0.3,0.3,0.5,0.4,0.7
				c0,0,0,0,0,0c-0.1-0.3-0.1-0.6-0.2-1c-0.1-0.4-0.1-0.6-0.2-1c0.1,0,0.1,0,0.2,0c0.2,0.9,0.2,1.4,0.4,2.3c-0.1,0-0.1,0-0.2,0
				c-0.3-0.4-0.4-0.7-0.7-1.1c-0.2-0.2-0.3-0.5-0.5-0.7c0,0,0,0,0,0c0.1,0.3,0.1,0.6,0.2,1c0.1,0.4,0.1,0.6,0.2,1
				C15.8,87.8,15.8,87.8,15.7,87.8z"/>
			<path class="st19" d="M18,86.7c0,0.3,0,0.5-0.1,0.8c-0.1,0-0.1,0-0.2,0c0.1-1,0.1-1.4,0.3-2.4c0.1,0,0.2,0,0.3,0
				c0.4,0.9,0.5,1.4,0.8,2.3c-0.1,0-0.1,0-0.2,0c-0.1-0.3-0.2-0.4-0.3-0.7C18.3,86.6,18.2,86.6,18,86.7z M18.5,86.4
				c-0.1-0.3-0.1-0.4-0.2-0.7c-0.1-0.1-0.1-0.3-0.1-0.4c0,0,0,0,0,0c0,0.1,0,0.3,0,0.4c0,0.3,0,0.4-0.1,0.7
				C18.2,86.4,18.3,86.4,18.5,86.4z"/>
			<path class="st19" d="M20.9,87.1c-0.1,0.1-0.2,0.1-0.4,0.1c-0.5,0-0.9-0.4-0.9-1.1c-0.1-0.7,0.3-1.3,0.8-1.3c0.2,0,0.4,0,0.4,0.1
				c0,0.1,0,0.2,0,0.3C20.7,85,20.5,85,20.4,85c-0.4,0-0.7,0.4-0.6,1c0,0.6,0.3,0.9,0.7,0.9c0.1,0,0.3-0.1,0.3-0.1
				C20.9,86.9,20.9,87,20.9,87.1z"/>
			<path class="st19" d="M21.8,84.7c0,0.9,0,1.4,0.1,2.4c-0.1,0-0.1,0-0.2,0c0-0.9,0-1.4-0.1-2.4C21.7,84.7,21.7,84.7,21.8,84.7z"/>
			<path class="st19" d="M24.2,85.9c0,0.8-0.4,1.2-0.8,1.2c-0.4,0-0.7-0.5-0.8-1.2c0-0.7,0.3-1.2,0.8-1.2
				C24,84.7,24.2,85.2,24.2,85.9z M22.9,85.9c0,0.5,0.2,1,0.5,1c0.3,0,0.5-0.4,0.6-1c0-0.5-0.2-1-0.5-1
				C23.1,84.9,22.9,85.4,22.9,85.9z"/>
			<path class="st19" d="M25,87.1c0-0.9,0.1-1.4,0.1-2.4c0.1,0,0.1,0,0.2,0c0.2,0.5,0.3,0.7,0.5,1.2c0.1,0.3,0.2,0.5,0.2,0.8
				c0,0,0,0,0,0c0-0.3,0-0.6,0.1-1c0-0.4,0-0.6,0.1-1c0.1,0,0.1,0,0.2,0c-0.1,0.9-0.1,1.4-0.2,2.3c-0.1,0-0.1,0-0.2,0
				c-0.2-0.5-0.3-0.7-0.4-1.2c-0.1-0.3-0.2-0.5-0.3-0.8c0,0,0,0,0,0c0,0.3,0,0.6,0,1c0,0.4,0,0.6-0.1,1C25.1,87.1,25.1,87.1,25,87.1
				z"/>
			<path class="st19" d="M27.4,86.6c-0.1,0.3-0.2,0.4-0.3,0.7c-0.1,0-0.1,0-0.2,0c0.3-0.9,0.5-1.4,0.8-2.3c0.1,0,0.2,0,0.3,0
				c0.1,1,0.2,1.4,0.3,2.4c-0.1,0-0.1,0-0.2,0c0-0.3,0-0.5-0.1-0.8C27.8,86.6,27.7,86.6,27.4,86.6z M28,86.4c0-0.3,0-0.4-0.1-0.7
				c0-0.2,0-0.3,0-0.4c0,0,0,0,0,0c0,0.1-0.1,0.3-0.1,0.4c-0.1,0.3-0.1,0.4-0.2,0.7C27.7,86.4,27.8,86.4,28,86.4z"/>
			<path class="st19" d="M29.5,85.2c0.1,0,0.1,0,0.2,0c-0.1,0.8-0.2,1.2-0.3,2.1c0.3,0,0.4,0.1,0.7,0.1c0,0.1,0,0.2,0,0.3
				c-0.4-0.1-0.5-0.1-0.9-0.2C29.2,86.6,29.3,86.2,29.5,85.2z"/>
		</g>
		<g>
		</g>
	</g>
</g>
<g>
	<g>
		<g>
			<defs>
				<polygon id="SVGID_3_" points="168.3,22.5 164.9,3.9 114.3,-9.4 101.8,9.7 112.9,31.9 116.9,38.9 118.3,43 120.9,49.2 122.9,52 
					123.1,56.1 123.6,59.7 126.2,66.6 132.6,73.5 138.8,76.4 138.8,78.7 136.6,78.8 131.2,83.2 131.3,83.9 116.3,84.7 106.1,86.4 
					101.1,89.1 96.5,93.2 93,99 87.9,109.3 84.5,114.5 82.1,117.3 77.4,120.7 77.8,124.9 70.7,120.5 67.1,119.3 62.7,112 15.5,75.9 
					-8.2,114.5 75.6,161.8 63.1,389.5 282.3,397 227.4,174.1 240.7,67.4 197.5,35.9 187.9,18.9 				"/>
			</defs>
			<clipPath id="SVGID_4_">
				<use xlink:href="#SVGID_3_"  style="overflow:visible;"/>
			</clipPath>
			<path class="st20" d="M108.2,114.1L107,86.8c0,0-8,2-12.4,10.5s-7.2,13.9-7.2,13.9l-3.6,4.7l-3.9,3l-2.3,2.7l-0.3,2.2l0.5,1.5
				l3.1,3.9l4.2,2.9l7.8,4.3l5.8-3.6l8.3-5.5L108.2,114.1z"/>
		</g>
	</g>
	<g>
		<g>
			<defs>
				<polygon id="SVGID_5_" points="168.3,22.5 164.9,3.9 114.3,-9.4 101.8,9.7 112.9,31.9 116.9,38.9 118.3,43 120.9,49.2 122.9,52 
					123.1,56.1 123.6,59.7 126.2,66.6 132.6,73.5 138.8,76.4 138.8,78.7 136.6,78.8 131.2,83.2 131.3,83.9 116.3,84.7 106.1,86.4 
					101.1,89.1 96.5,93.2 93,99 87.9,109.3 84.5,114.5 82.1,117.3 77.4,120.7 77.8,124.9 70.7,120.5 67.1,119.3 62.7,112 15.5,75.9 
					-8.2,114.5 75.6,161.8 63.1,389.5 282.3,397 227.4,174.1 240.7,67.4 197.5,35.9 187.9,18.9 				"/>
			</defs>
			<clipPath id="SVGID_6_">
				<use xlink:href="#SVGID_5_"  style="overflow:visible;"/>
			</clipPath>
			<polygon class="st21" points="130.3,84.6 116.9,84.7 106.9,86.6 106.9,89 125.6,86.2 128.5,85.9 130.1,86.3 131.3,87 			"/>
		</g>
	</g>
	<g>
		<g>
			<defs>
				<polygon id="SVGID_7_" points="168.3,22.5 164.9,3.9 114.3,-9.4 101.8,9.7 112.9,31.9 116.9,38.9 118.3,43 120.9,49.2 122.9,52 
					123.1,56.1 123.6,59.7 126.2,66.6 132.6,73.5 138.8,76.4 138.8,78.7 136.6,78.8 131.2,83.2 131.3,83.9 116.3,84.7 106.1,86.4 
					101.1,89.1 96.5,93.2 93,99 87.9,109.3 84.5,114.5 82.1,117.3 77.4,120.7 77.8,124.9 70.7,120.5 67.1,119.3 62.7,112 15.5,75.9 
					-8.2,114.5 75.6,161.8 63.1,389.5 282.3,397 227.4,174.1 240.7,67.4 197.5,35.9 187.9,18.9 				"/>
			</defs>
			<clipPath id="SVGID_8_">
				<use xlink:href="#SVGID_7_"  style="overflow:visible;"/>
			</clipPath>
			<polygon class="st22" points="106.7,97.9 132.8,92.4 132.4,102.3 108.4,121.3 103.5,112.7 			"/>
		</g>
	</g>
	<g>
		<g>
			<defs>
				<polygon id="SVGID_9_" points="168.3,22.5 164.9,3.9 114.3,-9.4 101.8,9.7 112.9,31.9 116.9,38.9 118.3,43 120.9,49.2 122.9,52 
					123.1,56.1 123.6,59.7 126.2,66.6 132.6,73.5 138.8,76.4 138.8,78.7 136.6,78.8 131.2,83.2 131.3,83.9 116.3,84.7 106.1,86.4 
					101.1,89.1 96.5,93.2 93,99 87.9,109.3 84.5,114.5 82.1,117.3 77.4,120.7 77.8,124.9 70.7,120.5 67.1,119.3 62.7,112 15.5,75.9 
					-8.2,114.5 75.6,161.8 63.1,389.5 282.3,397 227.4,174.1 240.7,67.4 197.5,35.9 187.9,18.9 				"/>
			</defs>
			<clipPath id="SVGID_10_">
				<use xlink:href="#SVGID_9_"  style="overflow:visible;"/>
			</clipPath>
			<polyline class="st23" points="128.9,85.8 107.7,91.3 109.2,97 117.2,95.4 100.8,101.2 104.6,88.9 120.8,86.2 			"/>
		</g>
	</g>
	<g>
		<g>
			<defs>
				<polygon id="SVGID_11_" points="168.3,22.5 164.9,3.9 114.3,-9.4 101.8,9.7 112.9,31.9 116.9,38.9 118.3,43 120.9,49.2 
					122.9,52 123.1,56.1 123.6,59.7 126.2,66.6 132.6,73.5 138.8,76.4 138.8,78.7 136.6,78.8 131.2,83.2 131.3,83.9 116.3,84.7 
					106.1,86.4 101.1,89.1 96.5,93.2 93,99 87.9,109.3 84.5,114.5 82.1,117.3 77.4,120.7 77.8,124.9 70.7,120.5 67.1,119.3 
					62.7,112 15.5,75.9 -8.2,114.5 75.6,161.8 63.1,389.5 282.3,397 227.4,174.1 240.7,67.4 197.5,35.9 187.9,18.9 				"/>
			</defs>
			<clipPath id="SVGID_12_">
				<use xlink:href="#SVGID_11_"  style="overflow:visible;"/>
			</clipPath>
			<polygon class="st24" points="179.8,89.4 177.5,96.3 179.6,97.2 181.7,89.8 			"/>
		</g>
	</g>
	<g>
		<g>
			<defs>
				<polygon id="SVGID_13_" points="168.3,22.5 164.9,3.9 114.3,-9.4 101.8,9.7 112.9,31.9 116.9,38.9 118.3,43 120.9,49.2 
					122.9,52 123.1,56.1 123.6,59.7 126.2,66.6 132.6,73.5 138.8,76.4 138.8,78.7 136.6,78.8 131.2,83.2 131.3,83.9 116.3,84.7 
					106.1,86.4 101.1,89.1 96.5,93.2 93,99 87.9,109.3 84.5,114.5 82.1,117.3 77.4,120.7 77.8,124.9 70.7,120.5 67.1,119.3 
					62.7,112 15.5,75.9 -8.2,114.5 75.6,161.8 63.1,389.5 282.3,397 227.4,174.1 240.7,67.4 197.5,35.9 187.9,18.9 				"/>
			</defs>
			<clipPath id="SVGID_14_">
				<use xlink:href="#SVGID_13_"  style="overflow:visible;"/>
			</clipPath>
			<polygon class="st25" points="183.1,90.3 185.1,90.9 182.5,98.5 180.2,97.6 			"/>
		</g>
	</g>
	<g>
		<g>
			<defs>
				<polygon id="SVGID_15_" points="168.3,22.5 164.9,3.9 114.3,-9.4 101.8,9.7 112.9,31.9 116.9,38.9 118.3,43 120.9,49.2 
					122.9,52 123.1,56.1 123.6,59.7 126.2,66.6 132.6,73.5 138.8,76.4 138.8,78.7 136.6,78.8 131.2,83.2 131.3,83.9 116.3,84.7 
					106.1,86.4 101.1,89.1 96.5,93.2 93,99 87.9,109.3 84.5,114.5 82.1,117.3 77.4,120.7 77.8,124.9 70.7,120.5 67.1,119.3 
					62.7,112 15.5,75.9 -8.2,114.5 75.6,161.8 63.1,389.5 282.3,397 227.4,174.1 240.7,67.4 197.5,35.9 187.9,18.9 				"/>
			</defs>
			<clipPath id="SVGID_16_">
				<use xlink:href="#SVGID_15_"  style="overflow:visible;"/>
			</clipPath>
			<path class="st26" d="M185.7,93.9c0,0-1.7,0.3-1.1,1.7c0.5,1.5,2,0.4,2,0.4S187.3,94.4,185.7,93.9z"/>
		</g>
	</g>
	<g>
		<g>
			<defs>
				<polygon id="SVGID_17_" points="168.3,22.5 164.9,3.9 114.3,-9.4 101.8,9.7 112.9,31.9 116.9,38.9 118.3,43 120.9,49.2 
					122.9,52 123.1,56.1 123.6,59.7 126.2,66.6 132.6,73.5 138.8,76.4 138.8,78.7 136.6,78.8 131.2,83.2 131.3,83.9 116.3,84.7 
					106.1,86.4 101.1,89.1 96.5,93.2 93,99 87.9,109.3 84.5,114.5 82.1,117.3 77.4,120.7 77.8,124.9 70.7,120.5 67.1,119.3 
					62.7,112 15.5,75.9 -8.2,114.5 75.6,161.8 63.1,389.5 282.3,397 227.4,174.1 240.7,67.4 197.5,35.9 187.9,18.9 				"/>
			</defs>
			<clipPath id="SVGID_18_">
				<use xlink:href="#SVGID_17_"  style="overflow:visible;"/>
			</clipPath>
			<polygon class="st27" points="131,93.1 117.6,96.3 109.8,98.2 103.5,89.5 112,86.3 128,85.7 			"/>
		</g>
	</g>
	<g>
		<g>
			<defs>
				<polygon id="SVGID_19_" points="168.3,22.5 164.9,3.9 114.3,-9.4 101.8,9.7 112.9,31.9 116.9,38.9 118.3,43 120.9,49.2 
					122.9,52 123.1,56.1 123.6,59.7 126.2,66.6 132.6,73.5 138.8,76.4 138.8,78.7 136.6,78.8 131.2,83.2 131.3,83.9 116.3,84.7 
					106.1,86.4 101.1,89.1 96.5,93.2 93,99 87.9,109.3 84.5,114.5 82.1,117.3 77.4,120.7 77.8,124.9 70.7,120.5 67.1,119.3 
					62.7,112 15.5,75.9 -8.2,114.5 75.6,161.8 63.1,389.5 282.3,397 227.4,174.1 240.7,67.4 197.5,35.9 187.9,18.9 				"/>
			</defs>
			<clipPath id="SVGID_20_">
				<use xlink:href="#SVGID_19_"  style="overflow:visible;"/>
			</clipPath>
			<polygon class="st28" points="110.8,87.9 114.1,96.4 116,95.9 112.5,87.1 			"/>
		</g>
	</g>
	<g>
		<g>
			<defs>
				<polygon id="SVGID_21_" points="168.3,22.5 164.9,3.9 114.3,-9.4 101.8,9.7 112.9,31.9 116.9,38.9 118.3,43 120.9,49.2 
					122.9,52 123.1,56.1 123.6,59.7 126.2,66.6 132.6,73.5 138.8,76.4 138.8,78.7 136.6,78.8 131.2,83.2 131.3,83.9 116.3,84.7 
					106.1,86.4 101.1,89.1 96.5,93.2 93,99 87.9,109.3 84.5,114.5 82.1,117.3 77.4,120.7 77.8,124.9 70.7,120.5 67.1,119.3 
					62.7,112 15.5,75.9 -8.2,114.5 75.6,161.8 63.1,389.5 282.3,397 227.4,174.1 240.7,67.4 197.5,35.9 187.9,18.9 				"/>
			</defs>
			<clipPath id="SVGID_22_">
				<use xlink:href="#SVGID_21_"  style="overflow:visible;"/>
			</clipPath>
			<polyline class="st29" points="115.4,87.2 119.2,95 121.3,94.7 117.9,87 			"/>
		</g>
	</g>
	<g>
		<g>
			<defs>
				<polygon id="SVGID_23_" points="168.3,22.5 164.9,3.9 114.3,-9.4 101.8,9.7 112.9,31.9 116.9,38.9 118.3,43 120.9,49.2 
					122.9,52 123.1,56.1 123.6,59.7 126.2,66.6 132.6,73.5 138.8,76.4 138.8,78.7 136.6,78.8 131.2,83.2 131.3,83.9 116.3,84.7 
					106.1,86.4 101.1,89.1 96.5,93.2 93,99 87.9,109.3 84.5,114.5 82.1,117.3 77.4,120.7 77.8,124.9 70.7,120.5 67.1,119.3 
					62.7,112 15.5,75.9 -8.2,114.5 75.6,161.8 63.1,389.5 282.3,397 227.4,174.1 240.7,67.4 197.5,35.9 187.9,18.9 				"/>
			</defs>
			<clipPath id="SVGID_24_">
				<use xlink:href="#SVGID_23_"  style="overflow:visible;"/>
			</clipPath>
			<path class="st30" d="M108.8,91.9l-0.6,1.6c0,0-0.6,0.7,0.7,1.3c1.3,0.6,2.3-0.7,2.3-0.7S112.5,92,108.8,91.9z"/>
		</g>
	</g>
	<g>
		<g>
			<defs>
				<polygon id="SVGID_25_" points="168.3,22.5 164.9,3.9 114.3,-9.4 101.8,9.7 112.9,31.9 116.9,38.9 118.3,43 120.9,49.2 
					122.9,52 123.1,56.1 123.6,59.7 126.2,66.6 132.6,73.5 138.8,76.4 138.8,78.7 136.6,78.8 131.2,83.2 131.3,83.9 116.3,84.7 
					106.1,86.4 101.1,89.1 96.5,93.2 93,99 87.9,109.3 84.5,114.5 82.1,117.3 77.4,120.7 77.8,124.9 70.7,120.5 67.1,119.3 
					62.7,112 15.5,75.9 -8.2,114.5 75.6,161.8 63.1,389.5 282.3,397 227.4,174.1 240.7,67.4 197.5,35.9 187.9,18.9 				"/>
			</defs>
			<clipPath id="SVGID_26_">
				<use xlink:href="#SVGID_25_"  style="overflow:visible;"/>
			</clipPath>
			<polygon class="st31" points="112.4,84.4 130.1,83.9 131.2,83.2 136,78.4 138.4,78.7 138.3,76.3 132.5,73.7 129.5,70.3 
				125.9,66.6 123.7,61.4 122.5,52.3 118.4,48.6 109.9,30 102.8,37.9 102.7,77.1 98.7,83.5 86.5,97.2 74.7,111.1 73.1,121.1 
				77.1,123.5 78.4,119.9 83.7,115.6 87.9,109.8 90.7,102.6 94.5,95.6 101.1,89.1 106.9,86.6 			"/>
		</g>
	</g>
	<g>
		<g>
			<defs>
				<polygon id="SVGID_27_" points="168.3,22.5 164.9,3.9 114.3,-9.4 101.8,9.7 112.9,31.9 116.9,38.9 118.3,43 120.9,49.2 
					122.9,52 123.1,56.1 123.6,59.7 126.2,66.6 132.6,73.5 138.8,76.4 138.8,78.7 136.6,78.8 131.2,83.2 131.3,83.9 116.3,84.7 
					106.1,86.4 101.1,89.1 96.5,93.2 93,99 87.9,109.3 84.5,114.5 82.1,117.3 77.4,120.7 77.8,124.9 70.7,120.5 67.1,119.3 
					62.7,112 15.5,75.9 -8.2,114.5 75.6,161.8 63.1,389.5 282.3,397 227.4,174.1 240.7,67.4 197.5,35.9 187.9,18.9 				"/>
			</defs>
			<clipPath id="SVGID_28_">
				<use xlink:href="#SVGID_27_"  style="overflow:visible;"/>
			</clipPath>
			<path class="st32" d="M87.4,132.5l5.3,2.4l-6.9,6.1l-4.4,2l-6.4-0.8l-10.5-6l-6.9-4.3l-18.9-11l-4.7-3l-2-2l-4.4-0.9l-6-2.2
				l-5.1-5.2l-3-1.4l-0.9-1.8l0.3-2.3l1.2-2.4l1.7-2.9l0.4-0.9l0.9,1l1.7-0.5l2.1-4.3l0.8-1.6l1.7-0.5l1,1.7L21.9,98l-1.8,4.9
				l2.3-2.1l2.5-4.9l1.9-3.8c0,0,1.1-0.6,2.3-0.1c1.1,0.5,1.2,2.1,1.2,2.1l-0.9,3.7l1,0.3h1.5l0.9,1.4v2.2l-1.8,3.1l2.6-0.1l4.4,1.5
				l2.4,3.9l6.1,2.1l10.2,3.1l7.6,2.5l8.1,3.7l3.3,2.2"/>
		</g>
	</g>
	<g>
		<g>
			<defs>
				<polygon id="SVGID_29_" points="168.3,22.5 164.9,3.9 114.3,-9.4 101.8,9.7 112.9,31.9 116.9,38.9 118.3,43 120.9,49.2 
					122.9,52 123.1,56.1 123.6,59.7 126.2,66.6 132.6,73.5 138.8,76.4 138.8,78.7 136.6,78.8 131.2,83.2 131.3,83.9 116.3,84.7 
					106.1,86.4 101.1,89.1 96.5,93.2 93,99 87.9,109.3 84.5,114.5 82.1,117.3 77.4,120.7 77.8,124.9 70.7,120.5 67.1,119.3 
					62.7,112 15.5,75.9 -8.2,114.5 75.6,161.8 63.1,389.5 282.3,397 227.4,174.1 240.7,67.4 197.5,35.9 187.9,18.9 				"/>
			</defs>
			<clipPath id="SVGID_30_">
				<use xlink:href="#SVGID_29_"  style="overflow:visible;"/>
			</clipPath>
			<path class="st33" d="M110,211.1l-0.4-14.8c0,0,5.6,5.2,11.8,1.2s0,0,0,0l0.8-3.3l13.8-0.5l15.3,0.1l12.4-1.2l1.1-2l4.8-0.5
				l7.8,3.7l0.4,16.9L112,211"/>
		</g>
	</g>
	<g>
		<g>
			<defs>
				<polygon id="SVGID_31_" points="168.3,22.5 164.9,3.9 114.3,-9.4 101.8,9.7 112.9,31.9 116.9,38.9 118.3,43 120.9,49.2 
					122.9,52 123.1,56.1 123.6,59.7 126.2,66.6 132.6,73.5 138.8,76.4 138.8,78.7 136.6,78.8 131.2,83.2 131.3,83.9 116.3,84.7 
					106.1,86.4 101.1,89.1 96.5,93.2 93,99 87.9,109.3 84.5,114.5 82.1,117.3 77.4,120.7 77.8,124.9 70.7,120.5 67.1,119.3 
					62.7,112 15.5,75.9 -8.2,114.5 75.6,161.8 63.1,389.5 282.3,397 227.4,174.1 240.7,67.4 197.5,35.9 187.9,18.9 				"/>
			</defs>
			<clipPath id="SVGID_32_">
				<use xlink:href="#SVGID_31_"  style="overflow:visible;"/>
			</clipPath>
			<polyline class="st34" points="116.8,195.4 119.3,193.2 120.5,190 120.4,187.3 118.2,185.1 112.8,184.9 110.4,187 111,192.1 
				114,195.1 116.4,195.4 116,199 112.8,198.4 111.3,197.2 110.8,196.7 109.8,194.7 108.6,192.1 108.6,191.5 108.9,187.9 
				110.1,183.8 111.2,182.8 112.8,182.8 115.2,183.1 118.4,183.5 119.9,183.6 122,185.7 122.4,191.2 122,195.2 121.4,197.8 
				119.3,198.4 117,198.7 114.4,198.6 112.8,198 			"/>
		</g>
	</g>
	<g>
		<g>
			<defs>
				<polygon id="SVGID_33_" points="168.3,22.5 164.9,3.9 114.3,-9.4 101.8,9.7 112.9,31.9 116.9,38.9 118.3,43 120.9,49.2 
					122.9,52 123.1,56.1 123.6,59.7 126.2,66.6 132.6,73.5 138.8,76.4 138.8,78.7 136.6,78.8 131.2,83.2 131.3,83.9 116.3,84.7 
					106.1,86.4 101.1,89.1 96.5,93.2 93,99 87.9,109.3 84.5,114.5 82.1,117.3 77.4,120.7 77.8,124.9 70.7,120.5 67.1,119.3 
					62.7,112 15.5,75.9 -8.2,114.5 75.6,161.8 63.1,389.5 282.3,397 227.4,174.1 240.7,67.4 197.5,35.9 187.9,18.9 				"/>
			</defs>
			<clipPath id="SVGID_34_">
				<use xlink:href="#SVGID_33_"  style="overflow:visible;"/>
			</clipPath>
			<polygon class="st35" points="110.1,186.6 112.3,184.5 118.9,184.7 121,187.3 121.4,192.2 118.1,196.3 113.7,196.3 110.1,192.2 
							"/>
		</g>
	</g>
	<g>
		<g>
			<defs>
				<polygon id="SVGID_35_" points="168.3,22.5 164.9,3.9 114.3,-9.4 101.8,9.7 112.9,31.9 116.9,38.9 118.3,43 120.9,49.2 
					122.9,52 123.1,56.1 123.6,59.7 126.2,66.6 132.6,73.5 138.8,76.4 138.8,78.7 136.6,78.8 131.2,83.2 131.3,83.9 116.3,84.7 
					106.1,86.4 101.1,89.1 96.5,93.2 93,99 87.9,109.3 84.5,114.5 82.1,117.3 77.4,120.7 77.8,124.9 70.7,120.5 67.1,119.3 
					62.7,112 15.5,75.9 -8.2,114.5 75.6,161.8 63.1,389.5 282.3,397 227.4,174.1 240.7,67.4 197.5,35.9 187.9,18.9 				"/>
			</defs>
			<clipPath id="SVGID_36_">
				<use xlink:href="#SVGID_35_"  style="overflow:visible;"/>
			</clipPath>
			<path class="st36" d="M100.2,191.8c0,0,6.9-0.7,7.8,0.3c0.9,0.9,0,28.3,0,28.3l0.2,0.9l-4.7,0.2l-2.4-1.3c-0.3,0-0.6-0.2-0.7-0.5
				l-0.9-2v-2.6L99,201.6l0.2-9.9L100.2,191.8z"/>
		</g>
	</g>
	<g>
		<g>
			<defs>
				<polygon id="SVGID_37_" points="168.3,22.5 164.9,3.9 114.3,-9.4 101.8,9.7 112.9,31.9 116.9,38.9 118.3,43 120.9,49.2 
					122.9,52 123.1,56.1 123.6,59.7 126.2,66.6 132.6,73.5 138.8,76.4 138.8,78.7 136.6,78.8 131.2,83.2 131.3,83.9 116.3,84.7 
					106.1,86.4 101.1,89.1 96.5,93.2 93,99 87.9,109.3 84.5,114.5 82.1,117.3 77.4,120.7 77.8,124.9 70.7,120.5 67.1,119.3 
					62.7,112 15.5,75.9 -8.2,114.5 75.6,161.8 63.1,389.5 282.3,397 227.4,174.1 240.7,67.4 197.5,35.9 187.9,18.9 				"/>
			</defs>
			<clipPath id="SVGID_38_">
				<use xlink:href="#SVGID_37_"  style="overflow:visible;"/>
			</clipPath>
			<polyline class="st37" points="122.9,51.4 123.1,34.6 124,30.8 132.2,31.7 141.9,31.5 149.1,30.6 154.7,29.4 161.6,27.2 
				162.3,34.6 163,41.8 164.1,49.8 165.2,53.4 168.1,49 171.4,46.4 172.1,46.2 173.6,42.6 174.3,36.8 174.7,32.1 174.1,26.7 
				171.8,24.3 168.2,23.4 167.4,20.8 166.7,18.8 162.6,13.8 156.8,11.2 150.5,10.4 139.3,9.7 126.3,9.3 119.9,7.6 115.5,3.4 
				112.5,8.4 112,12.6 112.3,17.8 113.5,21.2 116.7,25.7 119.9,28.2 121.5,29.2 119.3,34.3 119.3,39 119.7,42.8 120.6,47 
				121.7,50.7 122.9,51.4 			"/>
		</g>
	</g>
	<g>
		<g>
			<defs>
				<polygon id="SVGID_39_" points="168.3,22.5 164.9,3.9 114.3,-9.4 101.8,9.7 112.9,31.9 116.9,38.9 118.3,43 120.9,49.2 
					122.9,52 123.1,56.1 123.6,59.7 126.2,66.6 132.6,73.5 138.8,76.4 138.8,78.7 136.6,78.8 131.2,83.2 131.3,83.9 116.3,84.7 
					106.1,86.4 101.1,89.1 96.5,93.2 93,99 87.9,109.3 84.5,114.5 82.1,117.3 77.4,120.7 77.8,124.9 70.7,120.5 67.1,119.3 
					62.7,112 15.5,75.9 -8.2,114.5 75.6,161.8 63.1,389.5 282.3,397 227.4,174.1 240.7,67.4 197.5,35.9 187.9,18.9 				"/>
			</defs>
			<clipPath id="SVGID_40_">
				<use xlink:href="#SVGID_39_"  style="overflow:visible;"/>
			</clipPath>
			<polygon class="st38" points="139.7,77.3 146.3,78.2 152.2,76.5 156.3,74.9 156.7,76.7 149.4,81.6 148.8,81.9 146,82.9 
				141.7,83.9 139.3,83.8 			"/>
		</g>
	</g>
	<g>
		<g>
			<defs>
				<polygon id="SVGID_41_" points="168.3,22.5 164.9,3.9 114.3,-9.4 101.8,9.7 112.9,31.9 116.9,38.9 118.3,43 120.9,49.2 
					122.9,52 123.1,56.1 123.6,59.7 126.2,66.6 132.6,73.5 138.8,76.4 138.8,78.7 136.6,78.8 131.2,83.2 131.3,83.9 116.3,84.7 
					106.1,86.4 101.1,89.1 96.5,93.2 93,99 87.9,109.3 84.5,114.5 82.1,117.3 77.4,120.7 77.8,124.9 70.7,120.5 67.1,119.3 
					62.7,112 15.5,75.9 -8.2,114.5 75.6,161.8 63.1,389.5 282.3,397 227.4,174.1 240.7,67.4 197.5,35.9 187.9,18.9 				"/>
			</defs>
			<clipPath id="SVGID_42_">
				<use xlink:href="#SVGID_41_"  style="overflow:visible;"/>
			</clipPath>
			<path class="st39" d="M139.3,83.8c0,0,4.7,2.4,17.1-7.1l0.1,7.9l-3.4,7.4l-3.1,5.7l-1.7,3.7l-2.7,3.1l-0.6,0.3l-2.4-7.6l-4-13.6
				L139.3,83.8z"/>
		</g>
	</g>
	<g>
		<g>
			<defs>
				<polygon id="SVGID_43_" points="168.3,22.5 164.9,3.9 114.3,-9.4 101.8,9.7 112.9,31.9 116.9,38.9 118.3,43 120.9,49.2 
					122.9,52 123.1,56.1 123.6,59.7 126.2,66.6 132.6,73.5 138.8,76.4 138.8,78.7 136.6,78.8 131.2,83.2 131.3,83.9 116.3,84.7 
					106.1,86.4 101.1,89.1 96.5,93.2 93,99 87.9,109.3 84.5,114.5 82.1,117.3 77.4,120.7 77.8,124.9 70.7,120.5 67.1,119.3 
					62.7,112 15.5,75.9 -8.2,114.5 75.6,161.8 63.1,389.5 282.3,397 227.4,174.1 240.7,67.4 197.5,35.9 187.9,18.9 				"/>
			</defs>
			<clipPath id="SVGID_44_">
				<use xlink:href="#SVGID_43_"  style="overflow:visible;"/>
			</clipPath>
			<polyline class="st40" points="131.2,83.2 136.6,79 138.1,79.1 138.9,83.6 139.1,85.6 140,89.3 143.5,101.5 137.7,97.2 
				133.2,97.6 131.2,83.5 131.2,83.2 			"/>
		</g>
	</g>
	<g>
		<g>
			<defs>
				<polygon id="SVGID_45_" points="168.3,22.5 164.9,3.9 114.3,-9.4 101.8,9.7 112.9,31.9 116.9,38.9 118.3,43 120.9,49.2 
					122.9,52 123.1,56.1 123.6,59.7 126.2,66.6 132.6,73.5 138.8,76.4 138.8,78.7 136.6,78.8 131.2,83.2 131.3,83.9 116.3,84.7 
					106.1,86.4 101.1,89.1 96.5,93.2 93,99 87.9,109.3 84.5,114.5 82.1,117.3 77.4,120.7 77.8,124.9 70.7,120.5 67.1,119.3 
					62.7,112 15.5,75.9 -8.2,114.5 75.6,161.8 63.1,389.5 282.3,397 227.4,174.1 240.7,67.4 197.5,35.9 187.9,18.9 				"/>
			</defs>
			<clipPath id="SVGID_46_">
				<use xlink:href="#SVGID_45_"  style="overflow:visible;"/>
			</clipPath>
			<polygon class="st41" points="157.2,78.8 158,78.6 160.8,80.3 165.8,84.9 164,90 160.5,97.6 156.6,95.6 148.8,100.9 150.9,95.8 
				156.3,85.3 156.6,84.1 			"/>
		</g>
	</g>
	<g>
		<g>
			<defs>
				<polygon id="SVGID_47_" points="168.3,22.5 164.9,3.9 114.3,-9.4 101.8,9.7 112.9,31.9 116.9,38.9 118.3,43 120.9,49.2 
					122.9,52 123.1,56.1 123.6,59.7 126.2,66.6 132.6,73.5 138.8,76.4 138.8,78.7 136.6,78.8 131.2,83.2 131.3,83.9 116.3,84.7 
					106.1,86.4 101.1,89.1 96.5,93.2 93,99 87.9,109.3 84.5,114.5 82.1,117.3 77.4,120.7 77.8,124.9 70.7,120.5 67.1,119.3 
					62.7,112 15.5,75.9 -8.2,114.5 75.6,161.8 63.1,389.5 282.3,397 227.4,174.1 240.7,67.4 197.5,35.9 187.9,18.9 				"/>
			</defs>
			<clipPath id="SVGID_48_">
				<use xlink:href="#SVGID_47_"  style="overflow:visible;"/>
			</clipPath>
			<polygon class="st42" points="131.3,85 127.8,85.2 132.7,101 106.8,118.2 106.7,132.4 107.6,153.3 107.3,169.6 107.3,181.4 
				110.3,182 117,182.8 123.8,184.1 131.9,184 132.5,182.2 148.8,182 149.7,183 165.2,183.1 177.1,180.8 175.4,177.1 172,179.9 
				169.1,179.9 168.1,177.2 165.2,179.6 163.3,179.8 161.9,177.4 168.6,169.6 160.5,175.1 158.7,174.2 158.5,171.9 165.9,166 
				168,163.6 163.4,165.6 161.1,163.8 162.6,161.4 165.8,158.7 167.8,158.1 172.3,157.4 174.5,159.9 178.7,164.5 179.8,160.7 
				180.3,154.1 182.7,131.6 183.3,125.1 196.3,136.8 199,136.6 207.5,134.1 213.4,130 217.5,125.6 217.1,123 212,113.8 206.6,106.5 
				201.2,100.7 191.8,92.8 188.5,91 182.9,89.7 173.9,87.1 165.7,85.1 160.4,97.8 156.9,95.6 148.9,101.1 145,105.2 143.1,101.2 
				137.3,97.1 133.2,97.6 			"/>
		</g>
	</g>
	<g>
		<g>
			<defs>
				<polygon id="SVGID_49_" points="168.3,22.5 164.9,3.9 114.3,-9.4 101.8,9.7 112.9,31.9 116.9,38.9 118.3,43 120.9,49.2 
					122.9,52 123.1,56.1 123.6,59.7 126.2,66.6 132.6,73.5 138.8,76.4 138.8,78.7 136.6,78.8 131.2,83.2 131.3,83.9 116.3,84.7 
					106.1,86.4 101.1,89.1 96.5,93.2 93,99 87.9,109.3 84.5,114.5 82.1,117.3 77.4,120.7 77.8,124.9 70.7,120.5 67.1,119.3 
					62.7,112 15.5,75.9 -8.2,114.5 75.6,161.8 63.1,389.5 282.3,397 227.4,174.1 240.7,67.4 197.5,35.9 187.9,18.9 				"/>
			</defs>
			<clipPath id="SVGID_50_">
				<use xlink:href="#SVGID_49_"  style="overflow:visible;"/>
			</clipPath>
			<polygon class="st43" points="165.2,93.2 185.7,97.4 187.3,91.6 166.4,86.2 			"/>
		</g>
	</g>
	<g>
		<g>
			<defs>
				<polygon id="SVGID_51_" points="168.3,22.5 164.9,3.9 114.3,-9.4 101.8,9.7 112.9,31.9 116.9,38.9 118.3,43 120.9,49.2 
					122.9,52 123.1,56.1 123.6,59.7 126.2,66.6 132.6,73.5 138.8,76.4 138.8,78.7 136.6,78.8 131.2,83.2 131.3,83.9 116.3,84.7 
					106.1,86.4 101.1,89.1 96.5,93.2 93,99 87.9,109.3 84.5,114.5 82.1,117.3 77.4,120.7 77.8,124.9 70.7,120.5 67.1,119.3 
					62.7,112 15.5,75.9 -8.2,114.5 75.6,161.8 63.1,389.5 282.3,397 227.4,174.1 240.7,67.4 197.5,35.9 187.9,18.9 				"/>
			</defs>
			<clipPath id="SVGID_52_">
				<use xlink:href="#SVGID_51_"  style="overflow:visible;"/>
			</clipPath>
			<polygon class="st44" points="183.6,90.9 181.8,96.2 179.7,95.9 181.9,90.2 			"/>
		</g>
	</g>
	<g>
		<g>
			<defs>
				<polygon id="SVGID_53_" points="168.3,22.5 164.9,3.9 114.3,-9.4 101.8,9.7 112.9,31.9 116.9,38.9 118.3,43 120.9,49.2 
					122.9,52 123.1,56.1 123.6,59.7 126.2,66.6 132.6,73.5 138.8,76.4 138.8,78.7 136.6,78.8 131.2,83.2 131.3,83.9 116.3,84.7 
					106.1,86.4 101.1,89.1 96.5,93.2 93,99 87.9,109.3 84.5,114.5 82.1,117.3 77.4,120.7 77.8,124.9 70.7,120.5 67.1,119.3 
					62.7,112 15.5,75.9 -8.2,114.5 75.6,161.8 63.1,389.5 282.3,397 227.4,174.1 240.7,67.4 197.5,35.9 187.9,18.9 				"/>
			</defs>
			<clipPath id="SVGID_54_">
				<use xlink:href="#SVGID_53_"  style="overflow:visible;"/>
			</clipPath>
			<polyline class="st45" points="178.9,89.5 176.5,95.2 174.4,94.9 177,89 			"/>
		</g>
	</g>
	<g>
		<g>
			<defs>
				<polygon id="SVGID_55_" points="168.3,22.5 164.9,3.9 114.3,-9.4 101.8,9.7 112.9,31.9 116.9,38.9 118.3,43 120.9,49.2 
					122.9,52 123.1,56.1 123.6,59.7 126.2,66.6 132.6,73.5 138.8,76.4 138.8,78.7 136.6,78.8 131.2,83.2 131.3,83.9 116.3,84.7 
					106.1,86.4 101.1,89.1 96.5,93.2 93,99 87.9,109.3 84.5,114.5 82.1,117.3 77.4,120.7 77.8,124.9 70.7,120.5 67.1,119.3 
					62.7,112 15.5,75.9 -8.2,114.5 75.6,161.8 63.1,389.5 282.3,397 227.4,174.1 240.7,67.4 197.5,35.9 187.9,18.9 				"/>
			</defs>
			<clipPath id="SVGID_56_">
				<use xlink:href="#SVGID_55_"  style="overflow:visible;"/>
			</clipPath>
			<path class="st46" d="M184.8,93.4l0.3,0.9c0,0,0.3,0.4-0.4,0.7s-1.3-0.4-1.3-0.4S182.7,93.5,184.8,93.4z"/>
		</g>
	</g>
	<g>
		<g>
			<defs>
				<polygon id="SVGID_57_" points="168.3,22.5 164.9,3.9 114.3,-9.4 101.8,9.7 112.9,31.9 116.9,38.9 118.3,43 120.9,49.2 
					122.9,52 123.1,56.1 123.6,59.7 126.2,66.6 132.6,73.5 138.8,76.4 138.8,78.7 136.6,78.8 131.2,83.2 131.3,83.9 116.3,84.7 
					106.1,86.4 101.1,89.1 96.5,93.2 93,99 87.9,109.3 84.5,114.5 82.1,117.3 77.4,120.7 77.8,124.9 70.7,120.5 67.1,119.3 
					62.7,112 15.5,75.9 -8.2,114.5 75.6,161.8 63.1,389.5 282.3,397 227.4,174.1 240.7,67.4 197.5,35.9 187.9,18.9 				"/>
			</defs>
			<clipPath id="SVGID_58_">
				<use xlink:href="#SVGID_57_"  style="overflow:visible;"/>
			</clipPath>
			<path class="st47" d="M162.8,107.1l8.3,1.4c0,0-0.8,2.1,2,3.4s-0.1-0.2-0.1-0.2s-0.4,6.9-5.6,9.6c-5.2,2.6-7.8-5.1-7.8-5.1
				l0.4-6.9C159.8,109.1,162.4,109.3,162.8,107.1z"/>
		</g>
	</g>
	<g>
		<g>
			<defs>
				<polygon id="SVGID_59_" points="168.3,22.5 164.9,3.9 114.3,-9.4 101.8,9.7 112.9,31.9 116.9,38.9 118.3,43 120.9,49.2 
					122.9,52 123.1,56.1 123.6,59.7 126.2,66.6 132.6,73.5 138.8,76.4 138.8,78.7 136.6,78.8 131.2,83.2 131.3,83.9 116.3,84.7 
					106.1,86.4 101.1,89.1 96.5,93.2 93,99 87.9,109.3 84.5,114.5 82.1,117.3 77.4,120.7 77.8,124.9 70.7,120.5 67.1,119.3 
					62.7,112 15.5,75.9 -8.2,114.5 75.6,161.8 63.1,389.5 282.3,397 227.4,174.1 240.7,67.4 197.5,35.9 187.9,18.9 				"/>
			</defs>
			<clipPath id="SVGID_60_">
				<use xlink:href="#SVGID_59_"  style="overflow:visible;"/>
			</clipPath>
			<polygon class="st48" points="143,101 142.8,120.6 148.4,120.7 148.5,101.8 145.2,104.6 			"/>
		</g>
	</g>
	<g>
		<g>
			<defs>
				<polygon id="SVGID_61_" points="168.3,22.5 164.9,3.9 114.3,-9.4 101.8,9.7 112.9,31.9 116.9,38.9 118.3,43 120.9,49.2 
					122.9,52 123.1,56.1 123.6,59.7 126.2,66.6 132.6,73.5 138.8,76.4 138.8,78.7 136.6,78.8 131.2,83.2 131.3,83.9 116.3,84.7 
					106.1,86.4 101.1,89.1 96.5,93.2 93,99 87.9,109.3 84.5,114.5 82.1,117.3 77.4,120.7 77.8,124.9 70.7,120.5 67.1,119.3 
					62.7,112 15.5,75.9 -8.2,114.5 75.6,161.8 63.1,389.5 282.3,397 227.4,174.1 240.7,67.4 197.5,35.9 187.9,18.9 				"/>
			</defs>
			<clipPath id="SVGID_62_">
				<use xlink:href="#SVGID_61_"  style="overflow:visible;"/>
			</clipPath>
			<path class="st49" d="M110.9,87.8c0,0,5,5.5,4.8,8.1l3.2-0.5l-3.7-8.1L110.9,87.8z"/>
		</g>
	</g>
	<g>
		<g>
			<defs>
				<polygon id="SVGID_63_" points="168.3,22.5 164.9,3.9 114.3,-9.4 101.8,9.7 112.9,31.9 116.9,38.9 118.3,43 120.9,49.2 
					122.9,52 123.1,56.1 123.6,59.7 126.2,66.6 132.6,73.5 138.8,76.4 138.8,78.7 136.6,78.8 131.2,83.2 131.3,83.9 116.3,84.7 
					106.1,86.4 101.1,89.1 96.5,93.2 93,99 87.9,109.3 84.5,114.5 82.1,117.3 77.4,120.7 77.8,124.9 70.7,120.5 67.1,119.3 
					62.7,112 15.5,75.9 -8.2,114.5 75.6,161.8 63.1,389.5 282.3,397 227.4,174.1 240.7,67.4 197.5,35.9 187.9,18.9 				"/>
			</defs>
			<clipPath id="SVGID_64_">
				<use xlink:href="#SVGID_63_"  style="overflow:visible;"/>
			</clipPath>
			<path class="st50" d="M119.3,86.9c0,0,5.1,4.9,4.9,7.3l3.2-0.5l-3.7-7.3L119.3,86.9z"/>
		</g>
	</g>
	<g>
		<g>
			<defs>
				<polygon id="SVGID_65_" points="168.3,22.5 164.9,3.9 114.3,-9.4 101.8,9.7 112.9,31.9 116.9,38.9 118.3,43 120.9,49.2 
					122.9,52 123.1,56.1 123.6,59.7 126.2,66.6 132.6,73.5 138.8,76.4 138.8,78.7 136.6,78.8 131.2,83.2 131.3,83.9 116.3,84.7 
					106.1,86.4 101.1,89.1 96.5,93.2 93,99 87.9,109.3 84.5,114.5 82.1,117.3 77.4,120.7 77.8,124.9 70.7,120.5 67.1,119.3 
					62.7,112 15.5,75.9 -8.2,114.5 75.6,161.8 63.1,389.5 282.3,397 227.4,174.1 240.7,67.4 197.5,35.9 187.9,18.9 				"/>
			</defs>
			<clipPath id="SVGID_66_">
				<use xlink:href="#SVGID_65_"  style="overflow:visible;"/>
			</clipPath>
			<path class="st51" d="M173,88.1c0,0-3.7,4-3.5,5.8l-2.4-0.4l2.7-5.9L173,88.1z"/>
		</g>
	</g>
	<g>
		<g>
			<defs>
				<polygon id="SVGID_67_" points="168.3,22.5 164.9,3.9 114.3,-9.4 101.8,9.7 112.9,31.9 116.9,38.9 118.3,43 120.9,49.2 
					122.9,52 123.1,56.1 123.6,59.7 126.2,66.6 132.6,73.5 138.8,76.4 138.8,78.7 136.6,78.8 131.2,83.2 131.3,83.9 116.3,84.7 
					106.1,86.4 101.1,89.1 96.5,93.2 93,99 87.9,109.3 84.5,114.5 82.1,117.3 77.4,120.7 77.8,124.9 70.7,120.5 67.1,119.3 
					62.7,112 15.5,75.9 -8.2,114.5 75.6,161.8 63.1,389.5 282.3,397 227.4,174.1 240.7,67.4 197.5,35.9 187.9,18.9 				"/>
			</defs>
			<clipPath id="SVGID_68_">
				<use xlink:href="#SVGID_67_"  style="overflow:visible;"/>
			</clipPath>
			<path class="st52" d="M178.6,90.4c0,0-2.8,3-2.7,4.4l-1.8-0.3l2-4.5L178.6,90.4z"/>
		</g>
	</g>
	<g>
		<g>
			<defs>
				<polygon id="SVGID_69_" points="168.3,22.5 164.9,3.9 114.3,-9.4 101.8,9.7 112.9,31.9 116.9,38.9 118.3,43 120.9,49.2 
					122.9,52 123.1,56.1 123.6,59.7 126.2,66.6 132.6,73.5 138.8,76.4 138.8,78.7 136.6,78.8 131.2,83.2 131.3,83.9 116.3,84.7 
					106.1,86.4 101.1,89.1 96.5,93.2 93,99 87.9,109.3 84.5,114.5 82.1,117.3 77.4,120.7 77.8,124.9 70.7,120.5 67.1,119.3 
					62.7,112 15.5,75.9 -8.2,114.5 75.6,161.8 63.1,389.5 282.3,397 227.4,174.1 240.7,67.4 197.5,35.9 187.9,18.9 				"/>
			</defs>
			<clipPath id="SVGID_70_">
				<use xlink:href="#SVGID_69_"  style="overflow:visible;"/>
			</clipPath>
			<path class="st53" d="M124,30.8c0,0,19.1,4.3,37.6-3.6c18.5-7.8,0,0,0,0s0.8,21.7,3.6,26.1s0,0,0,0s3.1-7.6,8-7s4.2,5.9,4.2,5.9
				V54l-3.6,5.9l-3.9,2l-3.3-1.3c0,0-5.1,10.1-9.8,13.1c-5.6,3.6-6.1,3.3-6.1,3.3l-6.3,0.7l-6-1.3l-5.8-2.4l-6.9-7.8l-2.2-6.6
				l-0.6-6.5l0.1-6l1.2-15.9"/>
		</g>
	</g>
	<g>
		<g>
			<defs>
				<polygon id="SVGID_71_" points="168.3,22.5 164.9,3.9 114.3,-9.4 101.8,9.7 112.9,31.9 116.9,38.9 118.3,43 120.9,49.2 
					122.9,52 123.1,56.1 123.6,59.7 126.2,66.6 132.6,73.5 138.8,76.4 138.8,78.7 136.6,78.8 131.2,83.2 131.3,83.9 116.3,84.7 
					106.1,86.4 101.1,89.1 96.5,93.2 93,99 87.9,109.3 84.5,114.5 82.1,117.3 77.4,120.7 77.8,124.9 70.7,120.5 67.1,119.3 
					62.7,112 15.5,75.9 -8.2,114.5 75.6,161.8 63.1,389.5 282.3,397 227.4,174.1 240.7,67.4 197.5,35.9 187.9,18.9 				"/>
			</defs>
			<clipPath id="SVGID_72_">
				<use xlink:href="#SVGID_71_"  style="overflow:visible;"/>
			</clipPath>
			<path class="st54" d="M132.5,62.7c0,0,1.6,2.4,2.8,2.4s12.2,0,12.2,0s2-1.6,1.9-2.3C149.3,62.2,132.5,62.7,132.5,62.7z"/>
		</g>
	</g>
	<g>
		<g>
			<defs>
				<polygon id="SVGID_73_" points="168.3,22.5 164.9,3.9 114.3,-9.4 101.8,9.7 112.9,31.9 116.9,38.9 118.3,43 120.9,49.2 
					122.9,52 123.1,56.1 123.6,59.7 126.2,66.6 132.6,73.5 138.8,76.4 138.8,78.7 136.6,78.8 131.2,83.2 131.3,83.9 116.3,84.7 
					106.1,86.4 101.1,89.1 96.5,93.2 93,99 87.9,109.3 84.5,114.5 82.1,117.3 77.4,120.7 77.8,124.9 70.7,120.5 67.1,119.3 
					62.7,112 15.5,75.9 -8.2,114.5 75.6,161.8 63.1,389.5 282.3,397 227.4,174.1 240.7,67.4 197.5,35.9 187.9,18.9 				"/>
			</defs>
			<clipPath id="SVGID_74_">
				<use xlink:href="#SVGID_73_"  style="overflow:visible;"/>
			</clipPath>
			<path class="st55" d="M137.6,58.5c0,0-0.6-3.5,3.4-4"/>
		</g>
	</g>
	<g>
		<g>
			<defs>
				<polygon id="SVGID_75_" points="168.3,22.5 164.9,3.9 114.3,-9.4 101.8,9.7 112.9,31.9 116.9,38.9 118.3,43 120.9,49.2 
					122.9,52 123.1,56.1 123.6,59.7 126.2,66.6 132.6,73.5 138.8,76.4 138.8,78.7 136.6,78.8 131.2,83.2 131.3,83.9 116.3,84.7 
					106.1,86.4 101.1,89.1 96.5,93.2 93,99 87.9,109.3 84.5,114.5 82.1,117.3 77.4,120.7 77.8,124.9 70.7,120.5 67.1,119.3 
					62.7,112 15.5,75.9 -8.2,114.5 75.6,161.8 63.1,389.5 282.3,397 227.4,174.1 240.7,67.4 197.5,35.9 187.9,18.9 				"/>
			</defs>
			<clipPath id="SVGID_76_">
				<use xlink:href="#SVGID_75_"  style="overflow:visible;"/>
			</clipPath>
			<path class="st56" d="M169.2,56.4c0,0-0.9-7.4,4.8-8.4"/>
		</g>
	</g>
	<g>
		<g>
			<defs>
				<polygon id="SVGID_77_" points="168.3,22.5 164.9,3.9 114.3,-9.4 101.8,9.7 112.9,31.9 116.9,38.9 118.3,43 120.9,49.2 
					122.9,52 123.1,56.1 123.6,59.7 126.2,66.6 132.6,73.5 138.8,76.4 138.8,78.7 136.6,78.8 131.2,83.2 131.3,83.9 116.3,84.7 
					106.1,86.4 101.1,89.1 96.5,93.2 93,99 87.9,109.3 84.5,114.5 82.1,117.3 77.4,120.7 77.8,124.9 70.7,120.5 67.1,119.3 
					62.7,112 15.5,75.9 -8.2,114.5 75.6,161.8 63.1,389.5 282.3,397 227.4,174.1 240.7,67.4 197.5,35.9 187.9,18.9 				"/>
			</defs>
			<clipPath id="SVGID_78_">
				<use xlink:href="#SVGID_77_"  style="overflow:visible;"/>
			</clipPath>
			<g class="st57">
				<path class="st58" d="M121.1,49.8l1.8,1.9L121.1,49.8z"/>
				<g>
					<path class="st59" d="M166.6,60.4c0,0-8.9,27.2-34,13.3l-6.3-6.7l-2.7-7.3l-0.6-4.1v-3.9l0.1-6.3c0,0-0.6-13.4,1.1-14.8
						c0,0,18.8,4.1,37.6-3.6c0,0,1.2,24.2,3.9,26.6c0,0,1.2-6,6.8-7.5c5.7-1.4,5.1,7.6,5.1,7.6l-3.6,5.9l-3.9,2L166.6,60.4z"/>
					<path class="st59" d="M172.4,46.2l1.6-3.8l1.1-9.8l-0.9-5.9c0,0-1.2-3.4-6.3-3.6c0,0,0.7-6.4-8.2-10.6c0,0-0.4-2.2-15.1-2.8
						C129.9,9.2,127,9.1,127,9.1l-4.6-0.5c0,0-5.2-1.5-6.9-5.6c0,0-5.3,6.8-2,17.2c0,0,1.2,6,7.7,8.7c0,0-4.8,6.1-0.1,20.8"/>
				</g>
				<path class="st59" d="M131.9,62.5h18c0,0-0.9,4.7-3.9,6.6s-9.2,0.3-9.2,0.3l-3.6-3.7L131.9,62.5z"/>
				<ellipse cx="132.6" cy="49.4" rx="2.2" ry="3.5"/>
				<ellipse cx="150.2" cy="49.4" rx="2.4" ry="3.9"/>
				<polygon points="135,41.5 135.6,39.4 133.3,38.4 127.3,40.3 124.4,43.1 124.9,43.8 128.7,41.8 131.8,41.7 134.5,42.2 				"/>
				<polygon class="st60" points="148,38.9 147.2,39.6 147.6,41.1 148.5,41.6 151.1,40.7 153.8,41.3 157.8,42.7 157.1,40.4 
					154.6,39.1 151.8,38.7 				"/>
				<path class="st58" d="M156.9,74.8l-0.4,9.5c0,0-7.6,18.8-11.6,20.4c0,0-5-11.5-6-20.1l0.1-8C139,76.7,146.1,80.9,156.9,74.8z"/>
				<path class="st58" d="M157.3,78.6c0,0,0.9-1.4,8.6,6.2l-5.6,13l-3.7-2.2l-8.9,6.4l8.8-17.7L157.3,78.6z"/>
				<polygon class="st58" points="138.4,78.7 136.6,78.8 131.2,83.2 133,97.5 137.3,97.1 143.5,101.5 139.1,85.6 				"/>
				<path class="st58" d="M166,84.8l23.1,6.5c0,0,20.1,12,28.4,33.2c0,0,0.4,7.3-20.7,12.7l-13.5-12.1l-4,39.1c0,0-1.4-0.5-1.4-0.6
					c-0.4-1.1-4.2-4-5.9-6.2c-3.6,0.5-5.6,0.9-5.6,0.9l-5.5,4.9c0,0,1.2,4.1,3.9,2.1s4.9-3.5,4.9-3.5l1.3,1.3l3.9,1.1l-5.7-1.1
					l-10.7,8.7c0,0-1.7,4.4,3.1,2.8l8.9-7.5h1.6l4.5,0.5l-6,0.3l-8.5,8.8c0,0-0.3,4.5,3.6,2.5l8.9-8.8l1.5,0.4l1.9,0.1l1.5,1.6
					l-4.5-1.3l-6.4,6.1c0,0-0.7,3.9,3.5,2.4l3.3-3l2.3-2.2l-2,2.7c0,0,1.3,9.1,11.1,6.1l20.5-16.3l18.3-18.9c0,0,2.9-8,0.7-11.7
					c-2.3-3.7-6.9-9.2-6.9-9.2l-1.5-1.7c0,0-3.8,6.2-14.5,10.1l3.4,3.5l2.1-2.9l-3,6.4l-0.8,2.9l-4.5,7.5l-7.7,10.7l-7.2,9.2
					l0.9,1.9c0,0-4.1-8-5.9-9.2s-2.4-1.4-2.4-1.4l-0.4-0.7V163"/>
				<path class="st58" d="M131,84.3"/>
				<path class="st58" d="M73.4,123.1c0.9-1.1,3.9,2.6,4.8,1.6c3.5,5,9.1,8,14.7,10c-0.7,0.7-1.4,1.5-2.2,2.2"/>
				<path class="st58" d="M131,84.2c-10.2,0.5-24-0.6-31.4,6C91,97.8,89,113.6,79,119.7c-6.4,3.9,6.3,12.5,12.4,14.6"/>
				<path class="st58" d="M93,134.8l13.8-8.7l0.4,25.2l-0.2,28.3l0.5,2l4.4,1c0,0,4.7-1.2,8.9,0.8s11.7,0.5,11.7,0.5V182h16.8
					l0.1,1.6l16.3-0.4l10.5-1.9l0.5-0.9"/>
				<path class="st58" d="M110.9,182.6c-1,0.1,0,0,1.1-0.2l8.3,0.9l2.2,2.4l0.2,5.9c0,0-0.3,4.2-1.2,5.9c-1,1.7-5.4,1.7-5.4,1.7
					s-3.2,0.1-5.7-2.7s-1.7-5-1.5-8.4s2-5.7,2-5.7l-4-0.8l-0.1,6.7l1.5,0.9l-0.1,2.6l-9.3-0.4c-4.7-6-0.4-11.8-0.4-11.8h8.2"/>
				<polyline class="st58" points="127.1,184.7 127.5,190.4 132.9,190.3 132.6,183.8 133.1,193.2 149.3,193.4 149.5,183.5 
					158.7,183.3 159.4,189.7 149.8,190.3 				"/>
				<path class="st58" d="M162,183.6l1.1,6.6l12.8-1.6c0,0-1-4.8,2.2-6.3"/>
				<path class="st58" d="M186.7,183.5l0.4,7.3h-9.6l1.3-7.5C178.8,183.3,184,184.9,186.7,183.5z"/>
				<path class="st58" d="M178.1,191.1L179,212l3.4-3.6l1.8-5.2c0,0,1.2-4.1,0.4-8c-0.9-3.9-0.9-3.9-0.9-3.9L178.1,191.1z"/>
				<path class="st58" d="M179,211.9l11.1,98.2l4,43.5c0,0-11.7,7.4-30-0.1l-3.7-25.2l-3-23.3l-3.6-31.8l-3.4-36.3l-2.1-16.9
					l-7.6,0.4l-0.4,78.6l-1.8,56.4c0,0-21.5,4.3-30-0.5l-0.7-28.3l0.4-28.4l-0.7-29.5l0.9-29.2l-0.1-47.6"/>
				<path class="st58" d="M98.8,191.3L99,218c0,0,1.1,2.7,3.3,3.3c2.3,0.7,5.5,0,5.5,0"/>
				<path class="st58" d="M135.3,356.2l0.8,2.6l3.5,1.1l2.1,3.3l0.8,12.2l-13-0.2l-0.4-2.8l-6.9,2.7l-33-0.2l-0.9-4.4l0.4-4.5
					l1.9-2.8l4.4-3.6l5.2-1.1l9.5-0.4l0.9-1.8C110.7,356.3,123.6,358.3,135.3,356.2z"/>
				<path class="st58" d="M166.9,354.8l-0.6,9c0,0-4.7,2.8-2,11.2h33.9v-6.5c0,0-1.5-5.4-5.7-7.7l-2-5.8
					C190.6,355,182.2,359.8,166.9,354.8z"/>
				<path class="st58" d="M34.7,118.8c9.6,4.3,27.7,16.9,36.5,21.6c10,5.3,12.4,2.5,20.1-3.9"/>
				<path class="st58" d="M76.4,123.7c-1,0.9,2.6,0.7,1.6,1.6c1,0.7,1.7,2,2.7,2.7c-8.7-5,1.9-4.4-35.9-16.4"/>
				<path class="st58" d="M43.3,123.2"/>
				<g>
					<path class="st58" d="M30.6,116l2,0.2c0,0-8.9-1.4-10.6-2.8c-1.7-1.3-2.1-1.9-2.1-1.9c-0.9,0.1-0.9,0.1-0.9,0.1l0,0"/>
					<path class="st58" d="M23.7,114.1c-1.1,0-7.7-6.7-10.5-8.1c-3.3-1.6,1.1-7,1.1-7l1.5-3.4c0,0,2.7-0.1,1.7,3.1s-1.8,5.1-1.8,5.1
						l1,1.4l2.2,3.3l-3.6-4.7L21,90.6c0,0,3.6-3,3.6,2l-4.3,10.8l0.5,1.5l1.9,4.1l-1.6-5.8l5.7-10.8c0,0,4.2-1.7,3.5,2.6l-5.6,11.2
						l0.8,1.3l0.7,1.7l2,0.9l-2.7-3.9l3.8-8c0,0,3.5-1.8,3.4,2.5l-1.9,4l-1.3,2.9l1.9-2.7c0,0,7.1-1.2,8.9,5.6"/>
				</g>
				<line class="st58" x1="30.7" y1="115.7" x2="36.4" y2="119.9"/>
				<line class="st7" x1="39.9" y1="110.6" x2="51.5" y2="113.7"/>
			</g>
		</g>
	</g>
	<g>
		<g>
			<defs>
				<polygon id="SVGID_79_" points="168.3,22.5 164.9,3.9 114.3,-9.4 101.8,9.7 112.9,31.9 116.9,38.9 118.3,43 120.9,49.2 
					122.9,52 123.1,56.1 123.6,59.7 126.2,66.6 132.6,73.5 138.8,76.4 138.8,78.7 136.6,78.8 131.2,83.2 131.3,83.9 116.3,84.7 
					106.1,86.4 101.1,89.1 96.5,93.2 93,99 87.9,109.3 84.5,114.5 82.1,117.3 77.4,120.7 77.8,124.9 70.7,120.5 67.1,119.3 
					62.7,112 15.5,75.9 -8.2,114.5 75.6,161.8 63.1,389.5 282.3,397 227.4,174.1 240.7,67.4 197.5,35.9 187.9,18.9 				"/>
			</defs>
			<clipPath id="SVGID_80_">
				<use xlink:href="#SVGID_79_"  style="overflow:visible;"/>
			</clipPath>
			<path class="st61" d="M178.1,164.1l0.1,0.7l0.9,0.4l1.8,0.9l1,1.3l0.9,1.4l1,1.7l1.2,1.6l0.8,1.3l0.1,0.1l0.6-0.5l-0.2-0.3
				l1.7-2.3l2.7-3.3l2.5-3.2l3-4.4l3.9-5.5l5.5-9.4l0.6-1.8l0.6-1.6l0.7-1.7l0.1-0.5l-3.4-3.3c0,0,10.3-3.6,13.4-9.5l5.1,6l3.2,4.9
				c0,0,1.7,2-1,10.6l-10,10l-9.1,9.4l-11.1,9l-8.4,6.5c0,0-8.1,3.4-10.3-5.4l1.7-2.6l-0.6-0.4l-6,5.4c0,0-2.8,0.8-2.6-2.1l5.5-5.2
				l0.9-0.7l3.2,1l2,0.5l0.8,0.2l-2.9-3.1l-2-0.2l-1.9-0.5l-8.8,9.2c0,0-3,1.5-3.3-2l8.2-8.3l0.5-0.5h2.2h1.3h1.5l0.8-0.2l-0.2-0.9
				l-6.3-0.5l-8.9,7.6c0,0-3.6,1.3-2.3-2.1l10.3-8.5l2.1,0.1l1.2,0.1h0.7l0.6,0.1h0.5l0.4,0.1l0.2-0.4l-3.8-1l-1.5-1.4l-5,3.5
				c0,0-1.1,0.8-1.8,0.6c0,0-1.2-1-1.5-1.9l5.2-4.6l5.3-1c0,0,1.2,1.1,2,2.3l1.8,1.4"/>
		</g>
	</g>
	<g>
		<g>
			<defs>
				<polygon id="SVGID_81_" points="168.3,22.5 164.9,3.9 114.3,-9.4 101.8,9.7 112.9,31.9 116.9,38.9 118.3,43 120.9,49.2 
					122.9,52 123.1,56.1 123.6,59.7 126.2,66.6 132.6,73.5 138.8,76.4 138.8,78.7 136.6,78.8 131.2,83.2 131.3,83.9 116.3,84.7 
					106.1,86.4 101.1,89.1 96.5,93.2 93,99 87.9,109.3 84.5,114.5 82.1,117.3 77.4,120.7 77.8,124.9 70.7,120.5 67.1,119.3 
					62.7,112 15.5,75.9 -8.2,114.5 75.6,161.8 63.1,389.5 282.3,397 227.4,174.1 240.7,67.4 197.5,35.9 187.9,18.9 				"/>
			</defs>
			<clipPath id="SVGID_82_">
				<use xlink:href="#SVGID_81_"  style="overflow:visible;"/>
			</clipPath>
			<line class="st62" x1="46.3" y1="112.1" x2="40.1" y2="110"/>
		</g>
	</g>
	<g>
		<g>
			<defs>
				<polygon id="SVGID_83_" points="168.3,22.5 164.9,3.9 114.3,-9.4 101.8,9.7 112.9,31.9 116.9,38.9 118.3,43 120.9,49.2 
					122.9,52 123.1,56.1 123.6,59.7 126.2,66.6 132.6,73.5 138.8,76.4 138.8,78.7 136.6,78.8 131.2,83.2 131.3,83.9 116.3,84.7 
					106.1,86.4 101.1,89.1 96.5,93.2 93,99 87.9,109.3 84.5,114.5 82.1,117.3 77.4,120.7 77.8,124.9 70.7,120.5 67.1,119.3 
					62.7,112 15.5,75.9 -8.2,114.5 75.6,161.8 63.1,389.5 282.3,397 227.4,174.1 240.7,67.4 197.5,35.9 187.9,18.9 				"/>
			</defs>
			<clipPath id="SVGID_84_">
				<use xlink:href="#SVGID_83_"  style="overflow:visible;"/>
			</clipPath>
			<path class="st63" d="M106.8,180.1l-8.6-0.1c0,0-3,6.1,0.6,11l7.6,0.2l1.7,0.3l-0.1-1.9l-1.5-0.8L106.8,180.1z"/>
		</g>
	</g>
	<g>
		<g>
			<defs>
				<polygon id="SVGID_85_" points="168.3,22.5 164.9,3.9 114.3,-9.4 101.8,9.7 112.9,31.9 116.9,38.9 118.3,43 120.9,49.2 
					122.9,52 123.1,56.1 123.6,59.7 126.2,66.6 132.6,73.5 138.8,76.4 138.8,78.7 136.6,78.8 131.2,83.2 131.3,83.9 116.3,84.7 
					106.1,86.4 101.1,89.1 96.5,93.2 93,99 87.9,109.3 84.5,114.5 82.1,117.3 77.4,120.7 77.8,124.9 70.7,120.5 67.1,119.3 
					62.7,112 15.5,75.9 -8.2,114.5 75.6,161.8 63.1,389.5 282.3,397 227.4,174.1 240.7,67.4 197.5,35.9 187.9,18.9 				"/>
			</defs>
			<clipPath id="SVGID_86_">
				<use xlink:href="#SVGID_85_"  style="overflow:visible;"/>
			</clipPath>
			<polygon class="st64" points="133.2,182.5 148.7,182.5 148.9,193 133.5,192.6 			"/>
		</g>
	</g>
	<g>
		<g>
			<defs>
				<polygon id="SVGID_87_" points="168.3,22.5 164.9,3.9 114.3,-9.4 101.8,9.7 112.9,31.9 116.9,38.9 118.3,43 120.9,49.2 
					122.9,52 123.1,56.1 123.6,59.7 126.2,66.6 132.6,73.5 138.8,76.4 138.8,78.7 136.6,78.8 131.2,83.2 131.3,83.9 116.3,84.7 
					106.1,86.4 101.1,89.1 96.5,93.2 93,99 87.9,109.3 84.5,114.5 82.1,117.3 77.4,120.7 77.8,124.9 70.7,120.5 67.1,119.3 
					62.7,112 15.5,75.9 -8.2,114.5 75.6,161.8 63.1,389.5 282.3,397 227.4,174.1 240.7,67.4 197.5,35.9 187.9,18.9 				"/>
			</defs>
			<clipPath id="SVGID_88_">
				<use xlink:href="#SVGID_87_"  style="overflow:visible;"/>
			</clipPath>
			<polygon class="st65" points="133.9,182.6 138.5,192.7 142.1,192.7 136.9,182.5 			"/>
		</g>
	</g>
	<g>
		<g>
			<defs>
				<polygon id="SVGID_89_" points="168.3,22.5 164.9,3.9 114.3,-9.4 101.8,9.7 112.9,31.9 116.9,38.9 118.3,43 120.9,49.2 
					122.9,52 123.1,56.1 123.6,59.7 126.2,66.6 132.6,73.5 138.8,76.4 138.8,78.7 136.6,78.8 131.2,83.2 131.3,83.9 116.3,84.7 
					106.1,86.4 101.1,89.1 96.5,93.2 93,99 87.9,109.3 84.5,114.5 82.1,117.3 77.4,120.7 77.8,124.9 70.7,120.5 67.1,119.3 
					62.7,112 15.5,75.9 -8.2,114.5 75.6,161.8 63.1,389.5 282.3,397 227.4,174.1 240.7,67.4 197.5,35.9 187.9,18.9 				"/>
			</defs>
			<clipPath id="SVGID_90_">
				<use xlink:href="#SVGID_89_"  style="overflow:visible;"/>
			</clipPath>
			<polygon class="st66" points="143.7,182.5 148.9,189.9 149,186.9 146.2,182.5 			"/>
		</g>
	</g>
	<g>
		<g>
			<defs>
				<polygon id="SVGID_91_" points="168.3,22.5 164.9,3.9 114.3,-9.4 101.8,9.7 112.9,31.9 116.9,38.9 118.3,43 120.9,49.2 
					122.9,52 123.1,56.1 123.6,59.7 126.2,66.6 132.6,73.5 138.8,76.4 138.8,78.7 136.6,78.8 131.2,83.2 131.3,83.9 116.3,84.7 
					106.1,86.4 101.1,89.1 96.5,93.2 93,99 87.9,109.3 84.5,114.5 82.1,117.3 77.4,120.7 77.8,124.9 70.7,120.5 67.1,119.3 
					62.7,112 15.5,75.9 -8.2,114.5 75.6,161.8 63.1,389.5 282.3,397 227.4,174.1 240.7,67.4 197.5,35.9 187.9,18.9 				"/>
			</defs>
			<clipPath id="SVGID_92_">
				<use xlink:href="#SVGID_91_"  style="overflow:visible;"/>
			</clipPath>
			<path class="st67" d="M127.5,184.8c0,0,4.5-0.4,4.6-0.6c0.2-0.2,0.2,5.8,0.2,5.8l-4.4-0.1L127.5,184.8z"/>
		</g>
	</g>
	<g>
		<g>
			<defs>
				<polygon id="SVGID_93_" points="168.3,22.5 164.9,3.9 114.3,-9.4 101.8,9.7 112.9,31.9 116.9,38.9 118.3,43 120.9,49.2 
					122.9,52 123.1,56.1 123.6,59.7 126.2,66.6 132.6,73.5 138.8,76.4 138.8,78.7 136.6,78.8 131.2,83.2 131.3,83.9 116.3,84.7 
					106.1,86.4 101.1,89.1 96.5,93.2 93,99 87.9,109.3 84.5,114.5 82.1,117.3 77.4,120.7 77.8,124.9 70.7,120.5 67.1,119.3 
					62.7,112 15.5,75.9 -8.2,114.5 75.6,161.8 63.1,389.5 282.3,397 227.4,174.1 240.7,67.4 197.5,35.9 187.9,18.9 				"/>
			</defs>
			<clipPath id="SVGID_94_">
				<use xlink:href="#SVGID_93_"  style="overflow:visible;"/>
			</clipPath>
			<path class="st68" d="M176.8,181.2l0.8,0.8c0,0-2.8,1.8-2.3,6.2l-11.8,1.4l-1-5.9l3.4-0.1L176.8,181.2z"/>
		</g>
	</g>
	<g>
		<g>
			<defs>
				<polygon id="SVGID_95_" points="168.3,22.5 164.9,3.9 114.3,-9.4 101.8,9.7 112.9,31.9 116.9,38.9 118.3,43 120.9,49.2 
					122.9,52 123.1,56.1 123.6,59.7 126.2,66.6 132.6,73.5 138.8,76.4 138.8,78.7 136.6,78.8 131.2,83.2 131.3,83.9 116.3,84.7 
					106.1,86.4 101.1,89.1 96.5,93.2 93,99 87.9,109.3 84.5,114.5 82.1,117.3 77.4,120.7 77.8,124.9 70.7,120.5 67.1,119.3 
					62.7,112 15.5,75.9 -8.2,114.5 75.6,161.8 63.1,389.5 282.3,397 227.4,174.1 240.7,67.4 197.5,35.9 187.9,18.9 				"/>
			</defs>
			<clipPath id="SVGID_96_">
				<use xlink:href="#SVGID_95_"  style="overflow:visible;"/>
			</clipPath>
			<polygon class="st69" points="149.9,184 158.3,183.8 158.9,189.2 149.8,189.8 			"/>
		</g>
	</g>
	<g>
		<g>
			<defs>
				<polygon id="SVGID_97_" points="168.3,22.5 164.9,3.9 114.3,-9.4 101.8,9.7 112.9,31.9 116.9,38.9 118.3,43 120.9,49.2 
					122.9,52 123.1,56.1 123.6,59.7 126.2,66.6 132.6,73.5 138.8,76.4 138.8,78.7 136.6,78.8 131.2,83.2 131.3,83.9 116.3,84.7 
					106.1,86.4 101.1,89.1 96.5,93.2 93,99 87.9,109.3 84.5,114.5 82.1,117.3 77.4,120.7 77.8,124.9 70.7,120.5 67.1,119.3 
					62.7,112 15.5,75.9 -8.2,114.5 75.6,161.8 63.1,389.5 282.3,397 227.4,174.1 240.7,67.4 197.5,35.9 187.9,18.9 				"/>
			</defs>
			<clipPath id="SVGID_98_">
				<use xlink:href="#SVGID_97_"  style="overflow:visible;"/>
			</clipPath>
			<path class="st70" d="M179.2,183.9c0,0,6.7,1,7,0.1s0.6,5.7,0.6,5.7l-0.2,0.8l-8.7-0.3L179.2,183.9z"/>
		</g>
	</g>
	<g>
		<g>
			<defs>
				<polygon id="SVGID_99_" points="168.3,22.5 164.9,3.9 114.3,-9.4 101.8,9.7 112.9,31.9 116.9,38.9 118.3,43 120.9,49.2 
					122.9,52 123.1,56.1 123.6,59.7 126.2,66.6 132.6,73.5 138.8,76.4 138.8,78.7 136.6,78.8 131.2,83.2 131.3,83.9 116.3,84.7 
					106.1,86.4 101.1,89.1 96.5,93.2 93,99 87.9,109.3 84.5,114.5 82.1,117.3 77.4,120.7 77.8,124.9 70.7,120.5 67.1,119.3 
					62.7,112 15.5,75.9 -8.2,114.5 75.6,161.8 63.1,389.5 282.3,397 227.4,174.1 240.7,67.4 197.5,35.9 187.9,18.9 				"/>
			</defs>
			<clipPath id="SVGID_100_">
				<use xlink:href="#SVGID_99_"  style="overflow:visible;"/>
			</clipPath>
			<path class="st71" d="M178.5,191.6l4.8-0.1c0,0,3.6,8.3-0.7,16.1l-3.1,3.3L178.5,191.6z"/>
		</g>
	</g>
	<g>
		<g>
			<defs>
				<polygon id="SVGID_101_" points="168.3,22.5 164.9,3.9 114.3,-9.4 101.8,9.7 112.9,31.9 116.9,38.9 118.3,43 120.9,49.2 
					122.9,52 123.1,56.1 123.6,59.7 126.2,66.6 132.6,73.5 138.8,76.4 138.8,78.7 136.6,78.8 131.2,83.2 131.3,83.9 116.3,84.7 
					106.1,86.4 101.1,89.1 96.5,93.2 93,99 87.9,109.3 84.5,114.5 82.1,117.3 77.4,120.7 77.8,124.9 70.7,120.5 67.1,119.3 
					62.7,112 15.5,75.9 -8.2,114.5 75.6,161.8 63.1,389.5 282.3,397 227.4,174.1 240.7,67.4 197.5,35.9 187.9,18.9 				"/>
			</defs>
			<clipPath id="SVGID_102_">
				<use xlink:href="#SVGID_101_"  style="overflow:visible;"/>
			</clipPath>
			<path class="st72" d="M107.2,182.1l3.2,0.7c0,0-2.3,4.5-1.8,6.2l-1.5-0.7L107.2,182.1z"/>
		</g>
	</g>
	<g>
		<g>
			<defs>
				<polygon id="SVGID_103_" points="168.3,22.5 164.9,3.9 114.3,-9.4 101.8,9.7 112.9,31.9 116.9,38.9 118.3,43 120.9,49.2 
					122.9,52 123.1,56.1 123.6,59.7 126.2,66.6 132.6,73.5 138.8,76.4 138.8,78.7 136.6,78.8 131.2,83.2 131.3,83.9 116.3,84.7 
					106.1,86.4 101.1,89.1 96.5,93.2 93,99 87.9,109.3 84.5,114.5 82.1,117.3 77.4,120.7 77.8,124.9 70.7,120.5 67.1,119.3 
					62.7,112 15.5,75.9 -8.2,114.5 75.6,161.8 63.1,389.5 282.3,397 227.4,174.1 240.7,67.4 197.5,35.9 187.9,18.9 				"/>
			</defs>
			<clipPath id="SVGID_104_">
				<use xlink:href="#SVGID_103_"  style="overflow:visible;"/>
			</clipPath>
			<path class="st73" d="M121.1,184.1l5.6,0.8l0.3,5.9l5.4,0.1l0.4,2.8l16.6,0.3l0.2-3l10.1-0.7l-0.8-6.3h2.6l1.2,6.5l13.5-1.3
				c0,0-0.6-5.7,2.3-6.4l-1.6,8.5h0.7l1,18.6l2.3,17.6l1.1,11.2l4.1,38.9l4.7,44.6l3.1,31.3c0,0-11,6.8-29.7-0.4l-4.8-33.1
				l-2.6-21.2l-1.1-11.5l-1.4-13.9l-1.3-11l-1.1-8.6l-0.9-10.4l-1.2-12.4l-1-10.5l-0.2-0.9l-8,0.8l-1.1,87l-0.2,24.5l-0.8,23.3
				c0,0-22.9,3.6-29.8-0.6l-0.7-35.7l0.3-15.6l-0.5-17.4l0.4-31.9l0.5-16.7l-0.1-28l0.2-14.3c0,0,1.6,3.5,3.8,4.4
				c2.1,0.9,5.7,0.3,5.7,0.3l3.1-1.3l0.6-1.1l0.5-3l0.2-1.7l0.1-4.1L121.1,184.1z"/>
		</g>
	</g>
	<g>
		<g>
			<defs>
				<polygon id="SVGID_105_" points="168.3,22.5 164.9,3.9 114.3,-9.4 101.8,9.7 112.9,31.9 116.9,38.9 118.3,43 120.9,49.2 
					122.9,52 123.1,56.1 123.6,59.7 126.2,66.6 132.6,73.5 138.8,76.4 138.8,78.7 136.6,78.8 131.2,83.2 131.3,83.9 116.3,84.7 
					106.1,86.4 101.1,89.1 96.5,93.2 93,99 87.9,109.3 84.5,114.5 82.1,117.3 77.4,120.7 77.8,124.9 70.7,120.5 67.1,119.3 
					62.7,112 15.5,75.9 -8.2,114.5 75.6,161.8 63.1,389.5 282.3,397 227.4,174.1 240.7,67.4 197.5,35.9 187.9,18.9 				"/>
			</defs>
			<clipPath id="SVGID_106_">
				<use xlink:href="#SVGID_105_"  style="overflow:visible;"/>
			</clipPath>
			<path class="st74" d="M126.4,215c0,0,20.7,3.3,39.3-0.7c0,0-8.8,6.1-16.7,6.5l-0.2-1.4l-8.5,0.7l-0.1,1.1
				C140.2,221.1,128.9,218,126.4,215z"/>
		</g>
	</g>
	<g>
		<g>
			<defs>
				<polygon id="SVGID_107_" points="168.3,22.5 164.9,3.9 114.3,-9.4 101.8,9.7 112.9,31.9 116.9,38.9 118.3,43 120.9,49.2 
					122.9,52 123.1,56.1 123.6,59.7 126.2,66.6 132.6,73.5 138.8,76.4 138.8,78.7 136.6,78.8 131.2,83.2 131.3,83.9 116.3,84.7 
					106.1,86.4 101.1,89.1 96.5,93.2 93,99 87.9,109.3 84.5,114.5 82.1,117.3 77.4,120.7 77.8,124.9 70.7,120.5 67.1,119.3 
					62.7,112 15.5,75.9 -8.2,114.5 75.6,161.8 63.1,389.5 282.3,397 227.4,174.1 240.7,67.4 197.5,35.9 187.9,18.9 				"/>
			</defs>
			<clipPath id="SVGID_108_">
				<use xlink:href="#SVGID_107_"  style="overflow:visible;"/>
			</clipPath>
			<path class="st75" d="M118.4,278.1c0,0-6.6-4.5-8.1-8.8c0,0,12.2,4.8,23.1-1.1c0,0-5.2,8.9-9.8,9.4"/>
		</g>
	</g>
	<g>
		<g>
			<defs>
				<polygon id="SVGID_109_" points="168.3,22.5 164.9,3.9 114.3,-9.4 101.8,9.7 112.9,31.9 116.9,38.9 118.3,43 120.9,49.2 
					122.9,52 123.1,56.1 123.6,59.7 126.2,66.6 132.6,73.5 138.8,76.4 138.8,78.7 136.6,78.8 131.2,83.2 131.3,83.9 116.3,84.7 
					106.1,86.4 101.1,89.1 96.5,93.2 93,99 87.9,109.3 84.5,114.5 82.1,117.3 77.4,120.7 77.8,124.9 70.7,120.5 67.1,119.3 
					62.7,112 15.5,75.9 -8.2,114.5 75.6,161.8 63.1,389.5 282.3,397 227.4,174.1 240.7,67.4 197.5,35.9 187.9,18.9 				"/>
			</defs>
			<clipPath id="SVGID_110_">
				<use xlink:href="#SVGID_109_"  style="overflow:visible;"/>
			</clipPath>
			<path class="st76" d="M166.3,276.9c0,0-6.6-4.4-8.1-8.7c0,0,12.2,4.8,23.1-1.1c0,0-5.2,8.8-9.8,9.3"/>
		</g>
	</g>
	<g>
		<g>
			<defs>
				<polygon id="SVGID_111_" points="168.3,22.5 164.9,3.9 114.3,-9.4 101.8,9.7 112.9,31.9 116.9,38.9 118.3,43 120.9,49.2 
					122.9,52 123.1,56.1 123.6,59.7 126.2,66.6 132.6,73.5 138.8,76.4 138.8,78.7 136.6,78.8 131.2,83.2 131.3,83.9 116.3,84.7 
					106.1,86.4 101.1,89.1 96.5,93.2 93,99 87.9,109.3 84.5,114.5 82.1,117.3 77.4,120.7 77.8,124.9 70.7,120.5 67.1,119.3 
					62.7,112 15.5,75.9 -8.2,114.5 75.6,161.8 63.1,389.5 282.3,397 227.4,174.1 240.7,67.4 197.5,35.9 187.9,18.9 				"/>
			</defs>
			<clipPath id="SVGID_112_">
				<use xlink:href="#SVGID_111_"  style="overflow:visible;"/>
			</clipPath>
			<polygon class="st77" points="89.2,373.1 89.5,374.5 122.5,374.7 125.1,373.5 			"/>
		</g>
	</g>
	<g>
		<g>
			<defs>
				<polygon id="SVGID_113_" points="168.3,22.5 164.9,3.9 114.3,-9.4 101.8,9.7 112.9,31.9 116.9,38.9 118.3,43 120.9,49.2 
					122.9,52 123.1,56.1 123.6,59.7 126.2,66.6 132.6,73.5 138.8,76.4 138.8,78.7 136.6,78.8 131.2,83.2 131.3,83.9 116.3,84.7 
					106.1,86.4 101.1,89.1 96.5,93.2 93,99 87.9,109.3 84.5,114.5 82.1,117.3 77.4,120.7 77.8,124.9 70.7,120.5 67.1,119.3 
					62.7,112 15.5,75.9 -8.2,114.5 75.6,161.8 63.1,389.5 282.3,397 227.4,174.1 240.7,67.4 197.5,35.9 187.9,18.9 				"/>
			</defs>
			<clipPath id="SVGID_114_">
				<use xlink:href="#SVGID_113_"  style="overflow:visible;"/>
			</clipPath>
			<polygon class="st78" points="129.7,373.1 129.9,374.7 142.1,375 141.9,373 			"/>
		</g>
	</g>
	<g>
		<g>
			<defs>
				<polygon id="SVGID_115_" points="168.3,22.5 164.9,3.9 114.3,-9.4 101.8,9.7 112.9,31.9 116.9,38.9 118.3,43 120.9,49.2 
					122.9,52 123.1,56.1 123.6,59.7 126.2,66.6 132.6,73.5 138.8,76.4 138.8,78.7 136.6,78.8 131.2,83.2 131.3,83.9 116.3,84.7 
					106.1,86.4 101.1,89.1 96.5,93.2 93,99 87.9,109.3 84.5,114.5 82.1,117.3 77.4,120.7 77.8,124.9 70.7,120.5 67.1,119.3 
					62.7,112 15.5,75.9 -8.2,114.5 75.6,161.8 63.1,389.5 282.3,397 227.4,174.1 240.7,67.4 197.5,35.9 187.9,18.9 				"/>
			</defs>
			<clipPath id="SVGID_116_">
				<use xlink:href="#SVGID_115_"  style="overflow:visible;"/>
			</clipPath>
			<path class="st79" d="M110.9,356.9c0,0,17.2,1.5,23.9-0.6l1.3,3l3.3,1.1l1.8,3.3l0.7,9.3l-12.3,0.2l-0.6-1.3l-4.3,1.9l-35.6-0.5
				l-0.3-2.6l0.4-4.6l1.8-2.7l4.2-3.2l5.3-1.2l7.2-0.1l1.9-0.2"/>
		</g>
	</g>
	<g>
		<g>
			<defs>
				<polygon id="SVGID_117_" points="168.3,22.5 164.9,3.9 114.3,-9.4 101.8,9.7 112.9,31.9 116.9,38.9 118.3,43 120.9,49.2 
					122.9,52 123.1,56.1 123.6,59.7 126.2,66.6 132.6,73.5 138.8,76.4 138.8,78.7 136.6,78.8 131.2,83.2 131.3,83.9 116.3,84.7 
					106.1,86.4 101.1,89.1 96.5,93.2 93,99 87.9,109.3 84.5,114.5 82.1,117.3 77.4,120.7 77.8,124.9 70.7,120.5 67.1,119.3 
					62.7,112 15.5,75.9 -8.2,114.5 75.6,161.8 63.1,389.5 282.3,397 227.4,174.1 240.7,67.4 197.5,35.9 187.9,18.9 				"/>
			</defs>
			<clipPath id="SVGID_118_">
				<use xlink:href="#SVGID_117_"  style="overflow:visible;"/>
			</clipPath>
			<path class="st80" d="M90.3,365.4c0,0-2.4,3.9,2.5,2.2c4.9-1.7,10.5-3.3,10.5-3.3l7.3-1.3c0,0,3.7-0.9,0.5-3s-13.7,0-13.7,0
				l-4,1.9L90.3,365.4z"/>
		</g>
	</g>
	<g>
		<g>
			<defs>
				<polygon id="SVGID_119_" points="168.3,22.5 164.9,3.9 114.3,-9.4 101.8,9.7 112.9,31.9 116.9,38.9 118.3,43 120.9,49.2 
					122.9,52 123.1,56.1 123.6,59.7 126.2,66.6 132.6,73.5 138.8,76.4 138.8,78.7 136.6,78.8 131.2,83.2 131.3,83.9 116.3,84.7 
					106.1,86.4 101.1,89.1 96.5,93.2 93,99 87.9,109.3 84.5,114.5 82.1,117.3 77.4,120.7 77.8,124.9 70.7,120.5 67.1,119.3 
					62.7,112 15.5,75.9 -8.2,114.5 75.6,161.8 63.1,389.5 282.3,397 227.4,174.1 240.7,67.4 197.5,35.9 187.9,18.9 				"/>
			</defs>
			<clipPath id="SVGID_120_">
				<use xlink:href="#SVGID_119_"  style="overflow:visible;"/>
			</clipPath>
			<g class="st81">
				<polygon class="st82" points="164,373.2 197.8,373.2 197.9,374.7 164.5,374.7 				"/>
				<path class="st83" d="M167.2,355.1l-0.5,8.8c0,0-3.9,1.7-2.4,9.3h33.5c0,0,2.1-8.3-5.7-12.5l-1.6-5.3
					C190.5,355.4,179,359.8,167.2,355.1z"/>
				<path class="st84" d="M167.5,364.4c0,0-4.1,4.2,2.3,3.5c6.4-0.6,13.6-1,13.6-1l9.3,0.5c0,0,4.7-0.1,1.5-3.7s-16.5-4.2-16.5-4.2
					l-5.4,1.2L167.5,364.4z"/>
			</g>
		</g>
	</g>
	<g>
		<g>
			<defs>
				<polygon id="SVGID_121_" points="168.3,22.5 164.9,3.9 114.3,-9.4 101.8,9.7 112.9,31.9 116.9,38.9 118.3,43 120.9,49.2 
					122.9,52 123.1,56.1 123.6,59.7 126.2,66.6 132.6,73.5 138.8,76.4 138.8,78.7 136.6,78.8 131.2,83.2 131.3,83.9 116.3,84.7 
					106.1,86.4 101.1,89.1 96.5,93.2 93,99 87.9,109.3 84.5,114.5 82.1,117.3 77.4,120.7 77.8,124.9 70.7,120.5 67.1,119.3 
					62.7,112 15.5,75.9 -8.2,114.5 75.6,161.8 63.1,389.5 282.3,397 227.4,174.1 240.7,67.4 197.5,35.9 187.9,18.9 				"/>
			</defs>
			<clipPath id="SVGID_122_">
				<use xlink:href="#SVGID_121_"  style="overflow:visible;"/>
			</clipPath>
			<path class="st85" d="M138.1,358.7H166l-0.2,4.8c0,0-4.4,2.5-2,11.7l34.7,0.3l0.2-7.2c0,0-1.4-4.2-3.3-6.1c0,0,22,2,25.7,9.3
				c3.6,7.4-23.6,11.8-23.6,11.8s-32.1,3.7-44.4,3.8c-12.4,0.1-46.8-1.8-46.8-1.8l-23.1-4.7c0,0-13-3.6-11.6-8.4
				c1.4-4.9,17.6-8.4,17.6-8.4l-0.8,1.8l-0.3,0.9l0.1,2.4v1.1v0.9l-0.1,0.7l-0.2,0.6l0.3,0.9l-0.1,0.7l0.5,1.2l0.1,0.8l2.5-0.1h5
				h20.6l6.2-0.1l5.6-2.3l0.3,1.9v0.5h1.2h1.7h1.5h1.9h0.8l2.1-0.2l2-0.1h2.4V371l-0.4-7.2C142.3,363.8,141.3,359.9,138.1,358.7z"/>
		</g>
	</g>
	<g>
		<g>
			<defs>
				<polygon id="SVGID_123_" points="168.3,22.5 164.9,3.9 114.3,-9.4 101.8,9.7 112.9,31.9 116.9,38.9 118.3,43 120.9,49.2 
					122.9,52 123.1,56.1 123.6,59.7 126.2,66.6 132.6,73.5 138.8,76.4 138.8,78.7 136.6,78.8 131.2,83.2 131.3,83.9 116.3,84.7 
					106.1,86.4 101.1,89.1 96.5,93.2 93,99 87.9,109.3 84.5,114.5 82.1,117.3 77.4,120.7 77.8,124.9 70.7,120.5 67.1,119.3 
					62.7,112 15.5,75.9 -8.2,114.5 75.6,161.8 63.1,389.5 282.3,397 227.4,174.1 240.7,67.4 197.5,35.9 187.9,18.9 				"/>
			</defs>
			<clipPath id="SVGID_124_">
				<use xlink:href="#SVGID_123_"  style="overflow:visible;"/>
			</clipPath>
			<path class="st86" d="M132.5,62.8h0.2l1.4,1.7c0,0,0.7,0.7,1.8,0.6h11.8l1.7-1.8c0,0-1.6,4.6-3.6,5.5c-2.1,0.9-3.1,0.7-3.1,0.7
				l-2,0.1l-2-0.3l-1.6-0.2l-3.4-3.6L132.5,62.8z"/>
		</g>
	</g>
</g>
<polyline class="st7" points="157,111.7 157.5,113.7 172.4,115.5 "/>
<g>
	<g>
		<g>
			<defs>
				<path id="SVGID_125_" d="M157.6,108.3c0,0,7.4-5,16.2-0.1c0,0,1,4.7-0.3,7.2c0,0-1.3,5.5-7.9,8.4c0,0-6-2.6-7.8-8.4
					C157.9,115.5,156.7,112.4,157.6,108.3z"/>
			</defs>
			<clipPath id="SVGID_126_">
				<use xlink:href="#SVGID_125_"  style="overflow:visible;"/>
			</clipPath>
			<g transform="matrix(1 0 0 1 0 0)" class="st87">
				
					<image style="overflow:visible;enable-background:new    ;" width="400" height="400" xlink:href="imgs/logo digeset.jpg"  transform="matrix(5.843774e-02 0 0 5.056999e-02 153.9553 105.1225)">
				</image>
			</g>
		</g>
	</g>
	<path class="st7" d="M157.6,108.3c0,0,8.2-4.5,16.1,0.3c0,0,0.7,4.6-0.2,6.7s-1.2,2.5-1.2,2.5l-1.6,2.2l-1.4,1.3l-1.6,1.1l-2.1,1.1
		l-2-1l-2.2-1.9l-2.2-2.1l-1.2-2.3l-0.7-3.1l0.1-1.9l0.3-2.8l0-0.1L157.6,108.3z"/>
	<text transform="matrix(1.0068 0 0 1 162.1348 110.1672)"><tspan x="0" y="0" class="st8 st88">Lo</tspan><tspan x="-3.9" y="6.3" class="st8 st88">rem i</tspan></text>
	<polyline points="166.9,115.5 167.2,112.8 167.2,112.7 	"/>
	<path class="st10" d="M157.7,108.6c0,0,8.1-4.4,15.8,0.3c0,0,0.6,4.5-0.2,6.6c-0.8,2.1-1.1,2.5-1.1,2.5l-1.6,2.1l-1.4,1.3l-1.6,1.1
		l-2.1,1.1l-1.9-1.1l-2.2-1.8l-2.1-2.1l-1.2-2.2l-0.7-3l0.1-1.9l0.3-2.7l0-0.1L157.7,108.6z"/>
	<path class="st11" d="M157.9,108.9c0,0,7.9-4.3,15.4,0.3c0,0,0.6,4.3-0.2,6.4c-0.8,2-1.1,2.4-1.1,2.4l-1.5,2.1l-1.3,1.3l-1.6,1
		l-2,1l-1.9-1l-2.1-1.8l-2.1-2l-1.2-2.2l-0.7-2.9l0.1-1.8l0.2-2.6l0-0.1L157.9,108.9z"/>
	<path class="st12" d="M158.2,109.2c0,0,7.5-4.1,14.8,0.3c0,0,0.6,4.2-0.2,6.2c-0.8,1.9-1.1,2.3-1.1,2.3l-1.5,2l-1.3,1.2l-1.5,1
		l-1.9,1l-1.7-1l-1.9-1.8l-1.9-2l-1.3-1.9l-0.6-2.8l0.1-1.7l0.2-2.5l0-0.1L158.2,109.2z"/>
	<path class="st13" d="M158.1,113.9l0.8,3.1l13.5-0.1c0,0,1-2.6,0.8-2.8C173,113.9,158.1,113.9,158.1,113.9z"/>
	<polygon class="st14" points="162.7,116.9 161.2,119.6 163.9,122.1 165.6,123.1 167.7,122.1 170.2,120 168,116.9 	"/>
	<line class="st15" x1="165.6" y1="123.1" x2="165.6" y2="120.8"/>
	<line class="st15" x1="165.5" y1="120.3" x2="165.5" y2="118.8"/>
	<line class="st15" x1="165.5" y1="118.3" x2="165.5" y2="117.2"/>
	<line class="st16" x1="161.2" y1="119.8" x2="162.7" y2="117.2"/>
	<line class="st16" x1="170.1" y1="120.1" x2="168" y2="117.1"/>
	<text transform="matrix(0.9513 0 0 1 159.294 116.3323)" class="st17 st8 st89">DIGESETT</text>
	<g>
		<g>
			<path class="st19" d="M159.5,109.3c0.1,0,0.3-0.1,0.5-0.1c0.2,0,0.4,0,0.6,0.1c0.1,0.1,0.2,0.2,0.2,0.4c0,0.2,0,0.4-0.1,0.5
				c-0.1,0.2-0.3,0.3-0.5,0.3c-0.1,0-0.1,0-0.2,0c0.1,0.3,0.1,0.5,0.2,0.8c-0.1,0-0.1,0-0.2,0C159.8,110.5,159.7,110.1,159.5,109.3z
				 M160,110.3c0.1,0,0.1,0,0.2,0c0.3-0.1,0.4-0.3,0.4-0.5c-0.1-0.3-0.3-0.4-0.5-0.3c-0.1,0-0.2,0-0.2,0.1
				C159.9,109.8,159.9,109.9,160,110.3z"/>
			<path class="st19" d="M163.3,109.8c0.1,0.7-0.3,1.2-0.7,1.2c-0.5,0.1-0.9-0.3-1-1c-0.1-0.7,0.2-1.2,0.7-1.2
				C162.9,108.7,163.2,109.1,163.3,109.8z M161.9,110c0.1,0.5,0.3,0.8,0.7,0.8c0.4,0,0.5-0.5,0.5-1c0-0.4-0.3-0.9-0.7-0.8
				C162,109,161.8,109.5,161.9,110z"/>
			<path class="st19" d="M164.1,108.6c0.1,0,0.1,0,0.2,0c0,0.8,0.1,1.2,0.1,1.9c0.3,0,0.5,0,0.8,0c0,0.1,0,0.1,0,0.2
				c-0.4,0-0.6,0-1,0C164.2,109.9,164.2,109.5,164.1,108.6z"/>
			<path class="st19" d="M166.3,108.6c0,0.9,0,1.3,0,2.2c-0.1,0-0.1,0-0.2,0c0-0.9,0-1.3,0-2.2C166.1,108.6,166.2,108.6,166.3,108.6
				z"/>
			<path class="st19" d="M168.4,110.8c-0.1,0-0.3,0.1-0.5,0.1c-0.5,0-0.9-0.4-0.8-1.1c0-0.7,0.5-1.1,1-1.1c0.2,0,0.4,0.1,0.4,0.1
				c0,0.1,0,0.1-0.1,0.2c-0.1-0.1-0.2-0.1-0.4-0.1c-0.4,0-0.8,0.3-0.8,0.8c0,0.5,0.2,0.9,0.6,0.9c0.1,0,0.3,0,0.4-0.1
				C168.4,110.7,168.4,110.7,168.4,110.8z"/>
			<path class="st19" d="M169.7,108.8c-0.1,0.9-0.2,1.3-0.3,2.1c-0.1,0-0.1,0-0.2,0c0.1-0.9,0.2-1.3,0.3-2.2
				C169.6,108.8,169.6,108.8,169.7,108.8z"/>
			<path class="st19" d="M170.8,110.5c-0.1,0.3-0.2,0.4-0.3,0.6c-0.1,0-0.1,0-0.2,0c0.4-0.8,0.6-1.2,1-2c0.1,0,0.2,0,0.3,0.1
				c0.1,0.9,0.1,1.4,0.2,2.2c-0.1,0-0.1,0-0.2-0.1c0-0.3,0-0.4-0.1-0.7C171.2,110.6,171,110.5,170.8,110.5z M171.4,110.4
				c0-0.3,0-0.4-0.1-0.6c0-0.1,0-0.3,0-0.4c0,0,0,0,0,0c-0.1,0.1-0.1,0.2-0.2,0.4c-0.1,0.2-0.2,0.3-0.3,0.6
				C171.1,110.3,171.2,110.3,171.4,110.4z"/>
			<path class="st19" d="M161,113.1c-0.1-0.6-0.2-0.9-0.3-1.4c0.1,0,0.1,0,0.2,0c0.2,0.3,0.3,0.4,0.5,0.7c0.1,0.2,0.2,0.3,0.3,0.4
				c0,0,0,0,0,0c0-0.2-0.1-0.4-0.1-0.6c0-0.2-0.1-0.4-0.1-0.6c0.1,0,0.1,0,0.1,0c0.1,0.6,0.1,0.9,0.2,1.4c-0.1,0-0.1,0-0.1,0
				c-0.2-0.3-0.3-0.4-0.5-0.7c-0.1-0.1-0.2-0.3-0.3-0.4c0,0,0,0,0,0c0,0.2,0.1,0.3,0.1,0.6c0,0.2,0.1,0.4,0.1,0.6
				C161.1,113.1,161,113.1,161,113.1z"/>
			<path class="st19" d="M162.5,112.4c0,0.2,0,0.3-0.1,0.5c-0.1,0-0.1,0-0.1,0c0.1-0.6,0.1-0.9,0.2-1.5c0.1,0,0.1,0,0.2,0
				c0.2,0.6,0.3,0.8,0.5,1.4c-0.1,0-0.1,0-0.2,0c-0.1-0.2-0.1-0.3-0.2-0.4C162.7,112.4,162.7,112.4,162.5,112.4z M162.9,112.2
				c-0.1-0.2-0.1-0.2-0.2-0.4c0-0.1-0.1-0.2-0.1-0.3c0,0,0,0,0,0c0,0.1,0,0.2,0,0.3c0,0.2,0,0.3-0.1,0.4
				C162.6,112.2,162.7,112.2,162.9,112.2z"/>
			<path class="st19" d="M164.5,112.6c-0.1,0-0.2,0.1-0.3,0.1c-0.3,0-0.6-0.2-0.6-0.7c0-0.5,0.2-0.8,0.5-0.8c0.1,0,0.2,0,0.3,0
				c0,0.1,0,0.1,0,0.2c-0.1,0-0.1-0.1-0.2,0c-0.3,0-0.4,0.2-0.4,0.6c0,0.4,0.2,0.6,0.5,0.5c0.1,0,0.2,0,0.2-0.1
				C164.4,112.5,164.4,112.6,164.5,112.6z"/>
			<path class="st19" d="M165.1,111.2c0,0.6,0,0.9,0,1.4c-0.1,0-0.1,0-0.1,0c0-0.6,0-0.9-0.1-1.4C165,111.2,165,111.2,165.1,111.2z"
				/>
			<path class="st19" d="M166.6,111.9c0,0.5-0.3,0.8-0.5,0.8c-0.3,0-0.5-0.3-0.5-0.7c0-0.5,0.2-0.8,0.5-0.8
				C166.5,111.2,166.7,111.5,166.6,111.9z M165.8,111.9c0,0.3,0.1,0.6,0.4,0.6c0.2,0,0.4-0.3,0.4-0.6c0-0.3-0.1-0.6-0.4-0.6
				C165.9,111.3,165.8,111.6,165.8,111.9z"/>
			<path class="st19" d="M167.1,112.7c0-0.6,0-0.9,0.1-1.4c0.1,0,0.1,0,0.2,0c0.1,0.3,0.2,0.5,0.3,0.8c0.1,0.2,0.1,0.3,0.2,0.5
				c0,0,0,0,0,0c0-0.2,0-0.4,0-0.6c0-0.2,0-0.4,0-0.6c0.1,0,0.1,0,0.1,0c0,0.6-0.1,0.9-0.1,1.4c-0.1,0-0.1,0-0.1,0
				c-0.1-0.3-0.2-0.5-0.3-0.8c-0.1-0.2-0.1-0.3-0.2-0.5c0,0,0,0,0,0c0,0.2,0,0.4,0,0.6c0,0.2,0,0.4,0,0.6
				C167.2,112.7,167.2,112.7,167.1,112.7z"/>
			<path class="st19" d="M168.8,112.3c-0.1,0.2-0.1,0.3-0.2,0.4c-0.1,0-0.1,0-0.1,0c0.2-0.6,0.3-0.8,0.5-1.4c0.1,0,0.1,0,0.2,0
				c0.1,0.6,0.1,0.9,0.2,1.5c-0.1,0-0.1,0-0.2,0c0-0.2,0-0.3-0.1-0.5C169,112.4,168.9,112.4,168.8,112.3z M169.2,112.2
				c0-0.2,0-0.3-0.1-0.4c0-0.1,0-0.2,0-0.3c0,0,0,0,0,0c0,0.1-0.1,0.2-0.1,0.3c-0.1,0.2-0.1,0.2-0.2,0.4
				C169,112.2,169,112.2,169.2,112.2z"/>
			<path class="st19" d="M170.1,111.5c0.1,0,0.1,0,0.1,0c-0.1,0.5-0.1,0.8-0.2,1.3c0.2,0,0.3,0,0.5,0.1c0,0.1,0,0.1,0,0.2
				c-0.2,0-0.4-0.1-0.6-0.1C170,112.4,170,112.1,170.1,111.5z"/>
		</g>
		<g>
		</g>
	</g>
</g>
</svg>
